<svg xmlns="http://www.w3.org/2000/svg" viewBox="0 0 567.81 157.5"><defs><style>.cls-1{fill:#020202;}.cls-2{fill:#7c88a1;}.cls-3{fill:#b4bac8;}.cls-4{fill:#62647c;}</style></defs><g id="Layer_2" data-name="Layer 2"><g id="Layer_1-2" data-name="Layer 1"><path class="cls-1" d="M567.81,73.29V81.1c-.25,1.35-.26,2.35-.5,3.5-2.4,11.64-3.71,23.64-7.39,34.85-6.16,18.82-17.84,32.83-38.76,36.49-4.28.75-8.61,1.07-13,1.53-2.33,0-4.53,0-6.86,0a48.69,48.69,0,0,0-5.58-.26q-173-.08-346,0c-1.82,0-3.65.11-5.48.17q-43.42-.09-86.86-.15a14.9,14.9,0,0,0-2,.11l-2.15,0a27.47,27.47,0,0,1-2.77-.25C34.43,155,21.55,147.68,14,133.31c-4.49-8.56-7.44-18-10.64-27.13A73.89,73.89,0,0,1,0,90.27c0-6.33,0-12.74,0-19.08.25-1.47.23-2.3.36-3.49C2,53.24,5.27,39.32,12.38,26.46s17-22.74,32.17-25C53.2.22,62.1.6,70.88.15c1.49-.08,1.68.06,4.34,0,10.33,0,20.61-.1,31-.1,2.73.14,1.86.14,2.73.14q33.27,0,66.54-.14c15.29.06,30.58.14,45.87.15a9.42,9.42,0,0,0,2.05,0l20.86,0c2.42.15,3.79,0,5.64,0Q376.4.21,503,.17c2.49,0,5-.09,7.47-.14C531,.87,547,9.21,555.77,28.44c4,8.82,6.75,18.26,9.47,27.59C566.86,61.58,567.07,67.59,567.81,73.29Z"/><path class="cls-2" d="M18.44,109.13c-7.7-22.58-6.74-44.91,2-67,2.07-1.28,3.12-3.92,5.16-5.25C28,35.35,30,33,32.54,32.45,43.48,30,54.76,25.62,65.8,25.53c48.41-.38,97.4.83,145.82.79,76.74-.07,153.62-.62,230.35-.79,21.61,0,43.74,1.44,65.35,1.76a52.38,52.38,0,0,1,29.87,10c4.08,2.94,7.06,7,11.14,9.94,4.13,11.63,6.47,23.5,4.7,35.9a10.2,10.2,0,0,0-1.49,3.08,108.63,108.63,0,0,1-18.27,33.5c-6.47,8.22-14.69,14.13-26.08,14.1q-215.7-.47-431.74-1c-19.56,0-37.46-7.29-52.39-20.15A28.75,28.75,0,0,0,18.44,109.13Z"/><path class="cls-3" d="M548.33,47.21c-4.08-2.94-8.14-5.9-12.22-8.84-8.7-6.26-18.28-10-29.12-10.21-21.61-.32-43.22-.92-64.84-.87-76.73.17-153.47.74-230.2.8-48.42,0-96.85-.94-145.27-.56-11,.09-22.09,3.72-33,6.18-2.54.57-4.64,3-7,4.57-2,1.33-4.14,2.57-6.21,3.85,5.27-16.32,15.16-27.69,33.13-29.44,8.15-.8,16.44-.43,24.66-.44,11.67,0,23.33.15,35,.18q74.47.16,149,.29,82.47.13,165,.23c26.81.05,53.62,0,80.42.33,5.1.06,10.23,1.24,15.25,2.35,6.56,1.44,12.38,4.73,15.7,10.61C542.31,32.94,545.1,40.2,548.33,47.21Z"/><path class="cls-4" d="M18.44,109.13c1.71,1,3.63,1.68,5.09,2.94,14.93,12.86,32.34,20,51.9,20,143.79.21,287.59,0,431.39.32,11.39,0,18.87-4.73,25.35-13a114.59,114.59,0,0,0,19-34.25c.27-.8,1.2-1.37,1.83-2-.11,18.06-4.22,34.85-15.57,49.35-6.87,8.78-16.34,12.1-27.06,12.72-.83,0-1.66,0-2.5,0q-224.22,0-448.43,0C38.13,145.18,20.76,129.87,18.44,109.13Z"/></g></g></svg>