<?xml version="1.0" encoding="utf-8"?>
<!-- Generator: Adobe Illustrator 26.1.0, SVG Export Plug-In . SVG Version: 6.00 Build 0)  -->
<svg version="1.1" id="Layer_1" xmlns="http://www.w3.org/2000/svg" xmlns:xlink="http://www.w3.org/1999/xlink" x="0px" y="0px"
	 viewBox="0 0 983 304.1" style="enable-background:new 0 0 983 304.1;" xml:space="preserve">
<style type="text/css">
	.st0{fill:#040203;}
	.st1{fill:#E76E00;}
	.st2{fill:#C64302;}
	.st3{fill:#F7913D;}
	.st4{fill:#FEFCFC;}
	.st5{fill:#FEFDFC;}
	.st6{fill:#FEFCFB;}
	.st7{fill:#C94603;}
	.st8{fill:#C94502;}
	.st9{fill:#C94503;}
	.st10{fill:#FDFBF9;}
	.st11{fill:#CA4908;}
	.st12{fill:#EA8E43;}
	.st13{fill:#C94604;}
	.st14{fill:#E76E01;}
	.st15{fill:#E76F04;}
	.st16{fill:#E76E02;}
</style>
<path class="st0" d="M488.7,297.8H320.2c-51.1,0-102.3-0.5-153.4,0.4c-26.8,0.5-51.5-5.3-75.4-16.3c-36.5-16.8-63.1-43.4-77.6-81.2
	c-6.3-16.5-7.1-34-7.2-51.6c-0.1-18.6,3.2-36.5,11.1-53.3c18.1-38.7,48.3-64.2,88-78.8c20.1-7.6,41.4-11.4,62.9-11.5
	c214,0.3,428,0.4,641.9,0.2c34.2,0,66.3,8.6,95.5,26.4c33.8,20.6,55.3,50.3,65.3,89c9.6,37.1-3.7,92.6-29.5,120.7
	c-26.8,29.2-59.9,47-98.5,53.8c-14.8,2.6-30.1,2.1-45.2,2.2c-30.7,0.2-61.3,0-92-0.1H583.6L488.7,297.8z"/>
<path class="st1" d="M39.2,220c-12.3-16-18.6-34.2-20-54.3c-1.5-19.2,0.9-38.6,7.2-56.9c1.8-5.2,5-9.8,7.5-14.8
	c2.6-1.8,3.3-5.7,5.5-7.9c3.4-3.5,8-7.4,10.5-10.4c3,2.8,0.4-1.6,3.2-0.9c3.5,0.9,1.5,0.1,2.5-3.9c1.6-6.2,6.4-3.2,3.2-6.7
	c3.1-2.7,7.5-6.3,10.7-8.6c0.7-0.5,4.2-1.7,8.2,0.9c6.6,4.3,12.6-5.3,17.4-8c7.9-4.4,2.3-3.8,9.6-9.3c3.6-2.7,8.2-4.3,11.3-7.8
	c1.7-1.9,8.7-4,11-4.4c14.8-2.7,30.3-6.1,45.2-8.5c1.5,0,10.1,0.5,11.6,0.5c140.3,0,270.3,1.8,410.6,1.8c1.5,0,6.2-0.4,7.7-0.4
	c74.7,0,147.5-0.2,222.2-0.2c1.3,0,5,0.7,6.3,0.7c4.3,0.5,10.6,1.5,14.9,2.4c30.9,5.9,53.9,18.6,78.8,38.1c2,1.5,5.4,4.8,7.8,5.7
	c10.8,9.4,17.3,21.8,22.8,34.6c12,27.8,13.8,56.3,5.1,85.4c-1.6,1.6-3.2,7.3-4,9.2c-7,17.9-17.2,31-31.7,43.1
	c-31.2,25.8-67.6,41.5-107.6,43.2c-2.7,0-6.7-2.3-9.4-2.3c-186.7,5.2-376.4,0-564.4,0h-73.7c-11.7-1.2-29.9-5.8-41-8.9
	c-33.2-9-59.2-19.8-83.5-45.6C43.2,224,41.4,221,39.2,220z"/>
<path class="st2" d="M39.9,220.1c2.1,0.9,4.8,1.2,6.1,2.8c22.3,24.7,51.5,37.5,82.3,46.7c12.6,3.7,26.2,5.2,39.4,5.3
	c87.3,0.8,174.6,1,261.9,1.1c72.2,0.2,144.3,0.2,216.5,0c58.3-0.1,116.6,0.3,174.9-1.2c36.5-0.9,69.7-14,98.5-36.8
	c12.6-9.9,23.8-21.4,31.6-35.6c1.6-2.9,2.6-6.1,4.4-9c1.4-2.3,3.5-4.2,5.3-6.2c-3.5,19.3-13.6,35.3-26.2,49.7
	c-23.3,26.9-53.6,41.8-88.1,48c-13,2.1-26.1,3.1-39.2,3c-195.1,0.2-390.3,0.2-585.4,0.1c-16.3,0-32.7,0.3-49-0.1
	c-20.4-0.5-40.1-4.3-59.8-10C95.4,272.8,81.8,261.7,67,252c-9.4-6.1-15.5-14.9-22.1-23.2C42.8,226.2,41.5,223,39.9,220.1z"/>
<path class="st3" d="M529,25c-34,0-68,0-101.9,0.1c-82.6,0-165.2,0-247.8,0c-18.1,0-35.7,3.4-53.2,7.4c-2.1,0.5-4.9,2.5-5.6,4.4
	c-1.8,5.2-5.3,8.9-9.6,11.7c-7.6,5-15.2,10.2-23.3,14.3c-2.8,1.4-7.8,0.8-10.7-0.8c-5.8-3.3-6.4-3.8-11.2,1
	c-1.3,1.4-2.4,2.8-3.5,4.3c3.3,2.8,10.2,3.4,7.2,9c-2,3.9-6.5,6.8-10.5,9c-0.9,0.5-4.6-4.2-6.9-6.5L34.1,95.4
	c8.3-22.2,25.4-37,43.9-50.2c20.3-14.5,43.4-22.1,67.9-25.7c10.3-1.6,20.8-2.4,31.2-2.4c210.6-0.1,421.1-0.2,631.7-0.2
	c41.9,0,78.9,13.5,112.1,38.3c4.5,3.3,8,7.9,11.9,11.9c-2.4-1-5.2-1.4-7.2-2.9c-23.3-18.2-50.5-30.7-79.5-36.5
	c-7-1.4-14.1-1.9-21.2-2.7c-1.9-0.4-3.9-0.7-5.8-0.9c-94.7,0-189.5,0-284.3,0C532.9,24.3,531,24.6,529,25z"/>
<path class="st4" d="M301.2,141.1c1.4,16.6-0.9,32.4-10.4,46.7c-14.6,21.8-39.5,31.9-64.7,26c-24.4-5.7-44.2-27.5-47.2-52.3
	c-0.7-5.9-0.6-11.9-0.8-17.9c0.6-2.7,1.3-5.4,1.9-8.2c7.3-32.8,38.1-53.4,71.2-47.5C276.6,92.5,296.2,113.3,301.2,141.1z
	 M270.8,146.1c-0.3-1.8-0.4-3.6-0.9-5.4c-3.7-14.3-18.9-25.1-33-23.5c-15.1,1.7-27.5,15-27.9,29.7c-0.3,1.6-0.4,3.3-0.5,4.9
	c0.5,21.5,19.2,36.9,38.8,32C263.5,180,272.8,164.9,270.8,146.1z"/>
<path class="st5" d="M399.8,159.8c0,3,0.1,5.9,0,8.9c-0.4,19.6-16.1,38.7-34.5,41.8c-7.7,1.3-14.6-0.4-24.4-6.1
	c0,11.3,0,22.4,0,33.5c0,4.9,0.1,10.4-5.3,12.4c-6.8,2.6-14.2,3-20.6-1.2c-1.9-1.3-3.1-4.9-3.1-7.5c-0.1-37.1,0-74.3,0.1-111.4
	c5.8-10,22-9.6,29.3,0.7c10.8-10.7,27.8-8.3,36.8-2.2C389.4,136.4,396.3,146.9,399.8,159.8z M368.8,161.1c-2.5-5.6-7-8.2-13-8.2
	s-10.1,2.8-12.5,8.2c-3,7-1.4,13.5,4.3,17.8c4.8,3.7,12.1,3.5,17.2-0.5C370.3,174.2,371.8,167.9,368.8,161.1z"/>
<path class="st6" d="M619.9,161.5c0.7,13.4-1.7,25.7-10.6,36.4c-16.7,19.9-46.4,22.5-66.3,5.8c-10.4-8.8-16.6-21.6-16.8-35.2
	c0-2.3,0-4.6,0-7c0.3-0.8,0.6-1.5,0.8-2.3c5.6-30,39.6-46.8,66.8-33.1C608.4,133.5,617,145.4,619.9,161.5z M557.9,161.8
	c-2.7,7.9-1.2,14.6,4.3,18.8c6.3,4.8,13.2,5.2,19.9,1s8.6-10,6.6-19.5c-2.9-6.8-8.6-10.6-15.8-10.5
	C566.1,151.4,560.2,155.5,557.9,161.8L557.9,161.8z"/>
<path class="st4" d="M720,159.1c0.1,14,0.2,28,0.2,42c0,7.9-2.6,10.8-10.4,11.8c-1.3,0.1-2.7,0.2-4,0.2
	c-12.2,0.1-15.5-3.2-15.6-15.2c0-10.5,0.1-21-0.2-31.5c-0.2-7.3-4.8-11.8-12.2-12.9c-7-1.1-13.8,2.5-16.1,9
	c-0.6,2.1-0.9,4.2-0.9,6.4c-0.1,10.1,0.1,20.3-0.1,30.5c-0.1,4.8-0.1,10.3-5.7,12.3c-7.1,2.5-14.6,3.1-21-1.4c-2-1.4-3.1-5.2-3.1-8
	c-0.2-24,0-47.9,0.1-71.9c3.9-7.9,11.2-7,18.1-6.7c5.8,0.3,10.8,2.1,11.1,9.2c0.6-0.2,1-0.2,1.2-0.4c13.8-15.5,36.7-8.7,47.4,3.8
	C714.6,142.9,717.8,150.7,720,159.1z"/>
<path class="st5" d="M450,102l0.2,9.1v12.8c4.4,0,8.5,0.2,12.6-0.1c6.3-0.4,10.9,1.6,13,8c0,3.6,0.3,7.3,0,10.9
	c-0.8,8-3.8,10.7-11.9,10.9c-4.4,0.1-8.9,0-13.7,0v14.5c0,1.8-0.1,3.6-0.2,5.4c0,10.6,0.3,11.1,10.6,11.4c4.8,0.2,8.2,2,10.3,6.3
	c0,4.2,0.4,8.3,0,12.4c-0.5,5.6-3.5,9.2-8.8,9.1c-7.9-0.1-16-0.4-23.6-2.6c-13.5-3.8-17.8-15-18.3-27.8c-0.4-9.6-0.1-19.3-0.1-28.8
	c-0.4-0.2-0.9-0.3-1.3-0.4c-11.8,0.6-14.4-1.8-14.3-13.8c0-2.8,0.2-5.6,0.4-8.4c2-8.2,8.5-7.3,15-6.9v-13c0.1-3.5,0.2-7.1,0.3-10.6
	c1.7-4.7,5.1-7.2,10.1-7.4c2.5-0.1,5-0.2,7.5-0.1C445,93.2,447.7,95.2,450,102z"/>
<path class="st6" d="M739.1,169.2c-5.6-8.7-7-18.1-5.3-28.2c3.3-10.8,11.2-16,21.7-18c15.2-3,29.7-1.2,43.3,6.3
	c4,4.7,1.8,9.1-0.5,13.5c-1,1.9-2.3,3.6-3.4,5.3c-3.8,3.1-7.6,2.2-11.6,0.3c-6-2.8-12.2-4.3-18.8-2.6c-1.6,0.4-2.8,1.8-4.3,2.8
	c1.1,1.5,1.9,3.8,3.4,4.3c3.9,1.3,7.9,2.3,12,2.9c13.5,2.7,25.9,6.6,29.3,22.5c1.9,24.7-8.4,33.6-31.9,35.8
	c-12.1,1.2-23.5-0.6-34.2-6.1c-9.5-4.9-10.2-6.9-6.5-16.8c0.8-1.1,1.5-2.1,2.2-3.2c4.3-6.6,7.2-7.6,14.6-4.4c3,1.3,5.8,3.6,8.9,4.3
	c5.3,0.9,10.6,1.4,16,1.5c1,0,2.1-1.8,3.2-2.7c-0.9-1-1.7-2.5-2.8-2.9c-2.3-0.9-4.7-1.5-7.2-1.9
	C756.5,180.4,746.9,176.8,739.1,169.2z"/>
<path class="st4" d="M515,135.9c0,19.8-0.2,39.6-0.1,59.4c0.1,15.9-2.6,19.2-21.4,17.4c-5.9-0.6-8.5-3.9-8.6-9.8
	c0-24.1,0.1-48.3,0.2-72.4c1-1.5,1.7-3.5,3.1-4.3c6.4-3.7,13.3-3.2,20.2-1.3C514,126.3,514.1,131.4,515,135.9z"/>
<path class="st7" d="M301.2,141.1c-5-27.8-24.6-48.6-50-53.1c-33.1-5.9-63.9,14.7-71.2,47.5c-0.6,2.7-1.3,5.4-1.9,8.2
	c-0.9-17.1,3.5-32.6,13.8-46.4c19.8-26.6,60.4-31.1,86-10c14.8,12.2,22.5,27.7,24,46.4C302,136.1,301.4,138.6,301.2,141.1z"/>
<path class="st8" d="M619.9,161.5c-2.9-16.1-11.5-28-26.1-35.4c-27.3-13.7-61.2,3.1-66.8,33.1c-0.2,0.8-0.5,1.6-0.8,2.3
	c-0.9-13.2,1.8-25.2,10.4-35.9c15.1-18.8,44.2-22.9,63.7-8.8C615.6,128,621.2,143.2,619.9,161.5z"/>
<path class="st9" d="M720,159.1c-2.1-8.4-5.3-16.2-11.1-23c-10.7-12.5-33.5-19.3-47.4-3.8c-0.2,0.2-0.6,0.2-1.2,0.4
	c-0.3-7.2-5.3-9-11.1-9.2c-6.9-0.3-14.2-1.2-18.1,6.7c0-2.5-0.1-5-0.1-7.5c0-8.8,2.5-11.7,11.3-12.5c3-0.1,6,0,8.9,0.4
	c5,0.6,8.5,3,9,8.5c4.6-2.7,8.6-6,13.1-7.5c11.4-3.9,21.7-0.4,30.7,6.9C716.7,129.1,721,143.1,720,159.1z"/>
<path class="st8" d="M399.8,159.8c-3.5-12.9-10.4-23.4-21.6-31c-9-6.1-26-8.5-36.8,2.2c-7.2-10.3-23.5-10.7-29.3-0.7
	c0-3-0.1-6-0.1-9c0.2-6.9,2.5-10.1,9.2-10.9c7.6-0.9,15.2-0.9,19.5,6.3c5-2,9.5-4.2,14.3-5.7c6.6-2.1,13-0.5,18.9,2.5
	C390.1,122,401.9,138.5,399.8,159.8z"/>
<path class="st8" d="M798.8,129.4c-13.7-7.6-28.1-9.3-43.3-6.3c-10.5,2.1-18.4,7.2-21.7,18c-3.2-12.3,3.1-24.8,14.9-29
	c15.8-5.6,31.3-4.5,46.5,2.3C801.6,117.3,802.3,120.9,798.8,129.4z"/>
<path class="st10" d="M491.1,111c-4.7-2.3-6.4-6.2-6.3-11.2c0.1-3.8,0.2-7.5,0.3-11.3c3.4-7.5,10.3-6.7,16.7-6.8s11.3,2.3,13.1,9
	c-0.1,3.8-0.2,7.6-0.4,11.4s-2,7-5.8,8.6L491.1,111z"/>
<path class="st11" d="M804.8,178.6c-3.3-15.9-15.8-19.8-29.3-22.5c-4.1-0.7-8.1-1.7-12-2.9c-1.5-0.5-2.3-2.8-3.4-4.3
	c1.4-1,2.7-2.4,4.3-2.8c6.5-1.7,12.8-0.3,18.8,2.6c4,1.9,7.8,2.8,11.6-0.3c0.3,0.6,0.4,1.4,0.8,1.8
	C804.6,157.7,805.8,167.8,804.8,178.6z"/>
<path class="st11" d="M739.1,169.2c7.8,7.6,17.4,11.2,28,12.9c2.5,0.3,4.9,1,7.2,1.9c1.2,0.5,1.9,1.9,2.8,2.9c-1,1-2.1,2.8-3.2,2.7
	c-5.4-0.1-10.7-0.6-16-1.5c-3.1-0.6-5.9-3-8.9-4.3c-7.3-3.2-10.2-2.2-14.6,4.4c-0.7,1.1-1.5,2.1-2.2,3.2c-5-7.6,0.5-13,4-18.8
	C737,171.4,738,170.3,739.1,169.2z"/>
<path class="st11" d="M491.1,111l17.5-0.3c6.5,4.8,6.7,11.7,6.3,18.8c-0.1,2.1,0,4.3,0,6.5c-0.9-4.5-0.9-9.6-6.6-11
	c-6.8-1.8-13.7-2.3-20.2,1.3c-1.4,0.8-2.1,2.8-3.1,4.3c0-2.4,0-4.9-0.1-7.3C484.6,117.8,486,113.5,491.1,111z"/>
<path class="st9" d="M450,102c-2.3-6.8-5-8.8-12.3-9.1c-2.5-0.1-5,0-7.5,0.1c-5,0.2-8.4,2.7-10.1,7.4c0-1.2,0-2.3-0.1-3.5
	c-1.8-18.3,8.7-19.1,24.4-15.5c4.1,0.9,5.3,4.8,5.5,8.6C450.1,94.1,450,98,450,102z"/>
<path class="st8" d="M514.8,90.7c-1.8-6.8-6.6-9.2-13.1-9s-13.3-0.7-16.7,6.8c0-2,0-4-0.1-6c-0.9-11.8,5.3-14.2,15.5-14.2
	c11.4,0.1,14.6,4,14.6,15.4C515,86,514.9,88.3,514.8,90.7z"/>
<path class="st7" d="M475.8,131.9c-2.1-6.3-6.7-8.4-13-8c-4.1,0.3-8.2,0.1-12.6,0.1v-12.8c4.8,0,9.6-0.1,14.4-0.1
	c7.4,0.1,10.6,3,11.3,10.4C476.1,124.9,475.8,128.4,475.8,131.9z"/>
<path class="st12" d="M529,25c1.9-0.4,3.9-0.7,5.8-0.9c94.8,0,189.5,0,284.3,0c2,0.1,3.9,0.4,5.8,0.9c-27,0-54,0-81,0.1
	C672.3,25.1,600.7,25,529,25z"/>
<path class="st13" d="M470.9,191.3c-2.1-4.3-5.5-6.1-10.3-6.3c-10.3-0.3-10.6-0.9-10.6-11.4c0-1.8,0.1-3.6,0.2-5.4
	c2.6,1.3,5.2,3.6,8,3.8c10.6,0.8,12.9,2.9,12.9,13.5C471,187.4,470.9,189.3,470.9,191.3z"/>
<path class="st7" d="M419.8,111.1v13c-6.5-0.4-12.9-1.2-15,6.9c0.3-5.2,0-10.5,1.3-15.3c0.6-2.1,4.6-3.5,7.3-4.5
	C415.3,110.5,417.7,111.1,419.8,111.1z"/>
<path class="st14" d="M209,147c0.4-14.7,12.8-28,27.9-29.8c14.1-1.7,29.3,9.2,33,23.5c0.5,1.8,0.6,3.6,0.9,5.4
	c-0.5,1.6-1.1,3.1-1.6,4.7c-4.5,15.4-26.6,27-42.8,17.7C217.7,163.4,212.4,156.2,209,147z"/>
<path class="st13" d="M209,147c3.4,9.2,8.7,16.4,17.5,21.5c16.2,9.4,38.3-2.3,42.8-17.7c0.5-1.6,1-3.1,1.6-4.7
	c2,18.8-7.4,33.9-23.5,37.8c-19.6,4.9-38.3-10.5-38.8-32C208.6,150.3,208.7,148.6,209,147z"/>
<path class="st7" d="M368.8,161.1c3,6.8,1.5,13.1-4,17.4c-5.1,3.9-12.4,4.2-17.2,0.5c-5.7-4.4-7.3-10.8-4.3-17.8
	C348.9,171.4,363.9,170.1,368.8,161.1z"/>
<path class="st15" d="M368.8,161.1c-4.9,8.9-19.9,10.2-25.5,0c2.4-5.4,6.6-8.2,12.5-8.2S366.2,155.6,368.8,161.1z"/>
<path class="st16" d="M557.8,161.8c2.3-6.2,8.3-10.3,14.9-10.2c7.3-0.1,12.9,3.6,15.8,10.5c-0.5,0.6-1.1,1.3-1.6,1.9
	C579,174.6,564.1,173.5,557.8,161.8z"/>
<path class="st8" d="M557.8,161.8c6.2,11.7,21.2,12.8,29.2,2.2c0.5-0.7,1-1.3,1.6-1.9c2.1,9.5,0.1,15.4-6.6,19.5s-13.6,3.8-19.9-1
	C556.7,176.4,555.1,169.6,557.8,161.8z"/>
</svg>
