<svg id="Layer_1" data-name="Layer 1" xmlns="http://www.w3.org/2000/svg" viewBox="0 0 967.86 292.66"><defs><style>.cls-1{fill:#040203;}.cls-2{fill:#e76e00;}.cls-3{fill:#c34202;}.cls-4{fill:#ed8b3b;}.cls-5{fill:#fefcfb;}.cls-6{fill:#fefdfc;}.cls-7{fill:#fefcfc;}.cls-8{fill:#c94502;}.cls-9{fill:#c94503;}.cls-10{fill:#cc5a13;}.cls-11{fill:#e98b3d;}.cls-12{fill:#c94603;}.cls-13{fill:#ca4602;}.cls-14{fill:#c94604;}.cls-15{fill:#e76f03;}</style></defs><path class="cls-1" d="M482.05,292.21H313.57c-51.15,0-102.31-.54-153.45.42-26.71.51-51.52-5.26-75.38-16.26C48.19,259.62,21.6,233,7.17,195.15.85,178.62.07,161.15,0,143.53c-.07-18.63,3.19-36.47,11.08-53.28,18.14-38.68,48.35-64.17,88-78.8A178.62,178.62,0,0,1,162,0Q483,.51,803.9.24c34.21,0,66.33,8.63,95.55,26.38,33.84,20.56,55.27,50.34,65.28,89,9.6,37.07-3.65,92.58-29.5,120.71-26.84,29.21-59.89,46.95-98.51,53.78-14.75,2.6-30.14,2.06-45.24,2.19-30.66.25-61.32-.05-92-.07H577Z"/><path class="cls-2" d="M30.6,214.37c-12.3-16-18.58-34.19-20-54.28a140.25,140.25,0,0,1,7.18-56.87c1.82-5.17,5-9.85,7.47-14.79,2.62-1.8,3.35-5.72,5.55-7.94,3.43-3.46,8-7.38,10.46-10.37,3,2.78.44-1.58,3.23-.88,3.48.87,1.54.07,2.54-3.91,1.57-6.21,6.39-3.17,3.23-6.66,3.08-2.68,7.54-6.33,10.67-8.6.67-.5,4.24-1.73,8.21.88,6.58,4.3,12.62-5.35,17.42-8,7.94-4.43,2.33-3.82,9.58-9.29,3.64-2.74,8.23-4.32,11.35-7.83,1.68-1.88,8.71-4,11-4.4,14.83-2.7,30.31-6.12,45.19-8.51,1.5,0,10,.49,11.55.49,140.3,0,270.27,1.77,410.57,1.76,1.5,0,6.23-.36,7.73-.39,74.71,0,147.47-.18,222.18-.2,1.29,0,5,.67,6.34.69,4.29.51,10.64,1.54,14.87,2.35,30.93,5.9,53.94,18.62,78.85,38.05,2,1.53,5.4,4.76,7.8,5.71,10.84,9.38,17.3,21.78,22.8,34.56,12,27.78,13.85,56.35,5.08,85.45-1.61,1.55-3.24,7.3-4,9.18-7,17.88-17.22,31-31.7,43.05-31.15,25.75-67.6,41.5-107.63,43.23-2.66,0-6.72-2.31-9.39-2.31-186.69,5.19-376.4,0-564.39,0H160.6c-11.7-1.18-29.85-5.84-41-8.87-33.19-9-59.23-19.85-83.48-45.65C34.6,218.37,32.79,215.37,30.6,214.37Z"/><path class="cls-3" d="M30.6,214.37c2.15,1,4.85,1.51,6.36,3.12,24.25,25.79,55.41,39.11,88.6,48.08,11.2,3,23.31,2.66,35,3.85a43.29,43.29,0,0,0,6.3.92q316.44.06,632.88,0a36.19,36.19,0,0,0,5.86-1c40-1.72,76.2-13.94,107.3-39.74,14.47-12,26.79-25.74,33.81-43.62.74-1.89,3.1-3.14,4.71-4.69-3.67,19.64-13.94,35.88-26.89,50.44-23.86,26.83-54.42,41.7-89.43,47.41a235.11,235.11,0,0,1-37.76,2.75q-255.12.25-510.25.13c-39.31,0-78.62.14-117.93.21-28,.05-55.15-5-80.62-16.08-12.26-5.31-22.39-15.37-33.94-22.6-10.32-6.46-15.54-17-22.7-26A11.64,11.64,0,0,1,30.6,214.37Z"/><path class="cls-4" d="M161.65,19.3c-14.89,2.4-29.8,4.64-44.63,7.34-2.25.41-4.4,2.71-6.08,4.59-3.12,3.51-5.26,8.16-8.9,10.9A199.87,199.87,0,0,1,79,56.86c-4.8,2.67-9.91,2.67-13.75-2.63-.6-.82-3-1.44-3.65-1-3.13,2.27-5.94,5-9,7.65,3.15,3.48,9.68,2.71,8.12,8.92-1,4-7.55,10.51-11,9.64-2.79-.7-4.89-4.18-7.86-7-2.49,3-5.4,7-8.84,10.43-2.19,2.22-5.16,3.67-7.78,5.47,3.57-12.83,12.73-22,21.65-31.11C70,33.57,98.5,19.89,130.81,14.58A273.59,273.59,0,0,1,174.43,11q311.6-.33,623.21-.23c41.82,0,79.07,12.81,112.48,37.41,5,3.68,9,8.76,13.41,13.19-2.4-1-5.2-1.4-7.16-2.93-24.92-19.43-53-31.63-84-37.53-4.23-.81-8.56-1.07-12.84-1.58l-3.89,0-224,0a39.18,39.18,0,0,0-5.81-.88q-209.19,0-418.34,0A38.07,38.07,0,0,0,161.65,19.3Z"/><path class="cls-5" d="M342.33,94.79c3.43,6.6.95,14-6.93,20.57-4.95,4.15-10.6,4-16.65-1.24-5.2-4.54-10.76-6.49-17.4-4.72-1.83.49-3.44,1.8-5.16,2.73-4.48,4.91-4.11,10.47,1.35,13.79a38.44,38.44,0,0,0,9.2,3.58c8.9,2.59,18,4.69,26.78,7.55,8.54,2.76,13.48,9.32,16.21,17.66.66,2,1.2,4.12,1.8,6.19.43,9.74.17,19.47-5.36,27.94-10.61,16.26-26.73,21.21-45,20.15-15.18-.89-27.71-7.53-36.87-20-3.42-4.67-5-9.36-1.68-14.7,1.82-1.92,3.54-3.94,5.46-5.75,5.43-5.13,10-5.53,16-1.09a104.48,104.48,0,0,1,8.18,7.28c6.07,5.59,12.91,8.08,21,5.2,7.73-2.74,10.09-11.61,4.56-16.89-3.58-1.57-7.08-3.36-10.76-4.64-8.11-2.8-16.54-4.77-24.41-8.11-14.08-6-21.5-19.77-19.75-35,.19-1.64.33-3.29.49-4.93C267.15,97,275,86.87,288.56,83.1,308.33,77.59,326.82,80,342.33,94.79Z"/><path class="cls-5" d="M530.6,127.93c0,19.75,0,39.5-.13,59.26a111.71,111.71,0,0,1-.61,11.42c-.45,4.49-2.94,7.61-7.55,7.89-4.92.3-10,.53-14.77-.47-2.8-.58-5.08-3.62-8-5.85-7.22,7-16.94,8.58-27.23,6-12.34-3-20.69-11.47-27-22.09-5.24-8.78-5.93-18.48-5.49-28.38,2-8.12,4.85-15.84,10.5-22.25,7.12-8.07,15.3-14.28,26.46-15.43,9.05-.94,17,1.45,23.45,8.08,3.34-7.09,7.33-9.14,16.38-8.6C526.14,118.12,527.69,119.27,530.6,127.93Zm-59,28.44c-3.26,6.86-1.7,13.14,4.42,17.88a14.09,14.09,0,0,0,17.49-.19c5.9-4.92,7.19-11.76,3.52-18.67-2.47-5.52-7.1-7.89-12.75-7.74C478.39,147.82,473.85,150.63,471.6,156.37Z"/><path class="cls-6" d="M426.49,185.58c0,4.15.37,8.33,0,12.45-.52,5.63-3.47,9.16-8.79,9.06-7.89-.15-16-.42-23.56-2.55-13.53-3.83-17.77-15-18.31-27.82-.4-9.61-.08-19.26-.08-28.75a5.81,5.81,0,0,0-1.3-.42c-11.8.61-14.38-1.84-14.34-13.76,0-2.81.25-5.63.38-8.45,2-8.15,8.5-7.33,14.95-6.93v-13c.09-3.54.19-7.09.28-10.64,1.7-4.71,5.06-7.21,10.06-7.41,2.49-.11,5-.21,7.47-.13,7.35.23,10.05,2.26,12.32,9.06l.21,9.12v12.8c4.42,0,8.52.21,12.59,0,6.32-.41,10.92,1.64,13,8,0,3.63.31,7.29,0,10.89-.75,8-3.77,10.69-11.86,10.85-4.44.08-8.87,0-13.71,0v14.46c-.05,1.81-.15,3.63-.16,5.45,0,10.59.32,11.1,10.59,11.44C421,179.45,424.42,181.25,426.49,185.58Z"/><path class="cls-6" d="M646.43,105.37c.09-3.54.19-7.09.28-10.64,1.71-4.71,5.06-7.21,10.06-7.41,2.49-.11,5-.21,7.47-.13,7.35.23,10,2.26,12.33,9.06q.09,4.56.2,9.12v12.8c4.42,0,8.52.21,12.59,0,6.32-.41,10.92,1.64,13,8,0,3.63.31,7.29,0,10.89-.75,8-3.77,10.68-11.86,10.85-2.31.05-4.63-.08-7-.16-2.12-.09-4.23-.23-6.76-.37v15c0,1.81-.15,3.63-.16,5.45,0,10.59.32,11.1,10.59,11.44,4.8.16,8.23,2,10.3,6.29,0,4.15.37,8.33,0,12.45-.52,5.63-3.47,9.16-8.79,9.06-7.89-.15-16-.42-23.56-2.55-13.53-3.83-17.77-15-18.31-27.82-.4-9.61-.08-19.26-.08-28.75a5.81,5.81,0,0,0-1.3-.42c-11.8.61-14.38-1.84-14.34-13.76,0-2.81.25-5.63.38-8.45,2-8.15,8.5-7.33,15-6.93Z"/><path class="cls-7" d="M620.33,131.79c3.43,6.6.94,14-6.93,20.57-4.95,4.15-10.58,4-16.66-1.24-5-4.38-10.37-6.34-16.91-4.88-6,1.34-9.17,5.07-9.21,11.22-.06,12.31,0,24.63,0,36.94,0,9.14-3.07,12.28-12.14,12.83-1.16.07-2.33.13-3.49.09-10.74-.31-13.55-3.17-13.53-13.85q.09-34.46.23-68.89c5.77-10,22.12-9.61,28.54-.39,5.26-2.06,10.09-5.13,15.22-5.73C599.12,116.84,610.6,122.37,620.33,131.79Z"/><path class="cls-8" d="M530.6,127.93c-2.86-8.66-4.41-9.81-14-10.38-9.05-.54-13,1.51-16.38,8.6-6.48-6.63-14.4-9-23.45-8.08-11.16,1.15-19.34,7.36-26.46,15.43-5.65,6.41-8.51,14.13-10.5,22.25-1.51-20.57,6.35-36.38,24.36-46.61,12.4-7,24.45-6.22,35.84,3.53,4.69-8.83,12.56-9.25,21-7.62,6.54,1.26,9,4.16,9.49,10.9C530.72,119.93,530.53,123.94,530.6,127.93Z"/><path class="cls-8" d="M342.33,94.79c-15.51-14.81-34-17.2-53.69-11.72-13.55,3.77-21.41,13.89-25.17,27.26-3-10.16,2.69-26,12.77-33.65C291.47,65.1,308.32,65.37,325.6,71a39,39,0,0,1,11.26,6.13C345.37,83.74,345.5,84.76,342.33,94.79Z"/><path class="cls-8" d="M620.33,131.79c-9.73-9.47-21.21-14.95-34.91-13.33-5.13.6-10,3.67-15.22,5.73-6.42-9.22-22.77-9.6-28.54.39,0-3-.14-6-.07-9,.17-7.18,2.94-10.47,10.09-11.06,7.42-.62,14.75-.33,18.83,6.75,4.19-2,7.85-4.6,11.9-5.5,14.59-3.24,26.56,2.62,37,12.15C624,122.06,622.2,127,620.33,131.79Z"/><path class="cls-8" d="M317.9,163c5.53,5.28,3.17,14.15-4.56,16.89-8.12,2.88-15,.39-21-5.2a104.48,104.48,0,0,0-8.18-7.28c-6-4.44-10.59-4-16,1.09-1.92,1.81-3.64,3.83-5.46,5.75a17,17,0,0,1,10.06-21.84c.33-.12.68-.24,1-.34a10.54,10.54,0,0,1,7.52.8,64.51,64.51,0,0,1,10.48,8.21c5.41,4.92,11.34,8.26,18.82,6.19C313.2,166.54,315.46,164.46,317.9,163Z"/><path class="cls-9" d="M351.53,160.9c-.6-2.07-1.14-4.15-1.8-6.19-2.73-8.34-7.67-14.9-16.21-17.66-8.82-2.86-17.88-5-26.78-7.55a38.44,38.44,0,0,1-9.2-3.58c-5.46-3.32-5.83-8.88-1.35-13.79,4.8,1.72,9.53,3.63,14.4,5.12,6.81,2.09,13.9,3.42,20.56,5.88,13.59,5,20.38,15.29,20.45,29.79C351.6,155.58,351.6,158.24,351.53,160.9Z"/><path class="cls-10" d="M805.6,269.37a36.47,36.47,0,0,1-5.8.91q-316.44.08-632.88,0a43.34,43.34,0,0,1-6.32-.91h645Z"/><path class="cls-11" d="M161.65,19.3a38,38,0,0,1,5.8-.89q209.15,0,418.29,0a39.18,39.18,0,0,1,5.81.88c-1.5,0-3,.09-4.5.09H166.15C164.65,19.37,163.15,19.37,161.65,19.3Z"/><path class="cls-9" d="M405.6,96.29c-2.27-6.8-5-8.83-12.32-9.06-2.49-.08-5,0-7.47.13-5,.2-8.36,2.7-10.06,7.41a33.43,33.43,0,0,0-.12-3.47C373.8,73,384.35,72.21,400,75.78c4.08.93,5.28,4.81,5.5,8.6C405.73,88.37,405.6,92.37,405.6,96.29Z"/><path class="cls-9" d="M676.6,96.29c-2.28-6.8-5-8.83-12.33-9.06-2.49-.08-5,0-7.47.13-5,.2-8.35,2.7-10.06,7.41a33.43,33.43,0,0,0-.12-3.47C644.79,73,655.34,72.21,671,75.78c4.08.93,5.28,4.81,5.5,8.6C676.73,88.37,676.6,92.37,676.6,96.29Z"/><path class="cls-9" d="M702.36,126.13c-2.08-6.33-6.68-8.38-13-8-4.07.26-8.17,0-12.59,0V105.37c4.8,0,9.61-.12,14.41-.06,7.42.11,10.65,3,11.27,10.36C702.74,119.16,702.41,122.66,702.36,126.13Z"/><path class="cls-9" d="M431.36,126.13c-2.08-6.33-6.68-8.38-13-8-4.07.26-8.17,0-12.59,0V105.37c4.8,0,9.61-.12,14.41-.06,7.42.11,10.65,3,11.27,10.36C431.74,119.16,431.41,122.66,431.36,126.13Z"/><path class="cls-12" d="M426.49,185.58c-2.07-4.33-5.5-6.13-10.3-6.29-10.27-.34-10.6-.85-10.59-11.44,0-1.82.11-3.64.16-5.45,2.65,1.31,5.23,3.57,7.95,3.77,10.61.75,12.94,2.89,12.92,13.49C426.6,181.64,426.54,183.61,426.49,185.58Z"/><path class="cls-12" d="M697.49,185.58c-2.07-4.33-5.5-6.13-10.3-6.29-10.27-.34-10.6-.85-10.59-11.44,0-1.82.11-3.64.16-5.45,2.65,1.31,5.23,3.57,8,3.77,10.61.75,12.94,2.89,12.92,13.49Q697.56,182.63,697.49,185.58Z"/><path class="cls-13" d="M646.43,105.37v13c-6.45-.4-12.91-1.22-15,6.93.32-5.15,0-10.48,1.28-15.35.56-2.06,4.58-3.52,7.3-4.5C641.94,104.8,644.29,105.37,646.43,105.37Z"/><path class="cls-13" d="M375.43,105.37v13c-6.45-.4-12.91-1.22-14.95,6.93.32-5.15-.05-10.48,1.28-15.35.56-2.06,4.58-3.52,7.3-4.5C370.94,104.8,373.29,105.37,375.43,105.37Z"/><path class="cls-11" d="M815.67,19.26l3.89,0Z"/><path class="cls-14" d="M497,155.37c3.67,6.91,2.38,13.75-3.52,18.67a14.09,14.09,0,0,1-17.49.19c-6.12-4.74-7.68-11-4.42-17.88a38.14,38.14,0,0,0,4.37,4.7C484.11,167.44,495.38,163.14,497,155.37Z"/><path class="cls-15" d="M497,155.37c-1.62,7.75-12.89,12-21.06,5.68a39.25,39.25,0,0,1-4.34-4.68c2.28-5.74,6.82-8.55,12.68-8.72C489.9,147.5,494.53,149.87,497,155.37Z"/></svg>