<?xml version="1.0" encoding="utf-8"?>
<!-- Generator: Adobe Illustrator 26.1.0, SVG Export Plug-In . SVG Version: 6.00 Build 0)  -->
<svg version="1.1" id="Layer_1" xmlns="http://www.w3.org/2000/svg" xmlns:xlink="http://www.w3.org/1999/xlink" x="0px" y="0px"
	 viewBox="0 0 983 304.1" style="enable-background:new 0 0 983 304.1;" xml:space="preserve">
<style type="text/css">
	.st0{fill:#040203;}
	.st1{fill:#E76E00;}
	.st2{fill:#C34202;}
	.st3{fill:#ED8B3B;}
	.st4{fill:#FEFDFC;}
	.st5{fill:#FEFCFC;}
	.st6{fill:#FEFCFB;}
	.st7{fill:#C94503;}
	.st8{fill:#C94502;}
	.st9{fill:#CC5A13;}
	.st10{fill:#C94604;}
	.st11{fill:#CA4908;}
	.st12{fill:#E98B3D;}
	.st13{fill:#CB4908;}
	.st14{fill:#E76E01;}
	.st15{fill:#CB4D0D;}
</style>
<path class="st0" d="M488.7,297.8H320.2c-51.1,0-102.3-0.5-153.4,0.4c-26.8,0.5-51.5-5.3-75.4-16.3c-36.5-16.8-63.1-43.4-77.6-81.2
	c-6.3-16.5-7.1-34-7.2-51.6c-0.1-18.6,3.2-36.5,11.1-53.3c18.1-38.7,48.3-64.2,88-78.8c20.1-7.6,41.4-11.4,62.9-11.5
	c214,0.3,428,0.4,641.9,0.2c34.2,0,66.3,8.6,95.5,26.4c33.8,20.6,55.3,50.3,65.3,89c9.6,37.1-3.7,92.6-29.5,120.7
	c-26.8,29.2-59.9,47-98.5,53.8c-14.8,2.6-30.1,2.1-45.2,2.2c-30.7,0.2-61.3,0-92-0.1H583.6L488.7,297.8z"/>
<path class="st1" d="M40.2,220c-12.3-16-18.6-34.2-20-54.3c-1.5-19.2,0.9-38.6,7.2-56.9c1.8-5.2,5-9.8,7.5-14.8
	c2.6-1.8,3.3-5.7,5.5-7.9c3.4-3.5,8-7.4,10.5-10.4c3,2.8,0.4-1.6,3.2-0.9c3.5,0.9,1.5,0.1,2.5-3.9c1.6-6.2,6.4-3.2,3.2-6.7
	c3.1-2.7,7.5-6.3,10.7-8.6c0.7-0.5,4.2-1.7,8.2,0.9c6.6,4.3,12.6-5.3,17.4-8c7.9-4.4,2.3-3.8,9.6-9.3c3.6-2.7,8.2-4.3,11.3-7.8
	c1.7-1.9,8.7-4,11-4.4c14.8-2.7,30.3-6.1,45.2-8.5c1.5,0,10.1,0.5,11.6,0.5c140.3,0,270.3,1.8,410.6,1.8c1.5,0,6.2-0.4,7.7-0.4
	c74.7,0,147.5-0.2,222.2-0.2c1.3,0,5,0.7,6.3,0.7c4.3,0.5,10.6,1.5,14.9,2.4c30.9,5.9,53.9,18.6,78.8,38.1c2,1.5,5.4,4.8,7.8,5.7
	c10.8,9.4,17.3,21.8,22.8,34.6c12,27.8,13.8,56.3,5.1,85.4c-1.6,1.6-3.2,7.3-4,9.2c-7,17.9-17.2,31-31.7,43.1
	c-31.2,25.8-67.6,41.5-107.6,43.2c-2.7,0-6.7-2.3-9.4-2.3c-186.7,5.2-376.4,0-564.4,0h-73.7c-11.7-1.2-29.9-5.8-41-8.9
	c-33.2-9-59.2-19.8-83.5-45.6C44.2,224,42.4,221,40.2,220z"/>
<path class="st2" d="M40,220.1c2.2,1,4.8,1.5,6.4,3.1c24.3,25.7,55.4,39.2,88.6,48.1c11.2,3,23.3,2.7,35,3.9
	c2.1,0.5,4.2,0.8,6.3,0.9c211,0,421.9,0,632.9,0c2-0.1,3.9-0.5,5.8-0.9c40.1-1.6,76.2-13.9,107.3-39.7c14.5-12,26.8-25.7,33.8-43.6
	c0.7-1.9,3.1-3.1,4.7-4.7c-3.7,19.6-13.9,35.9-26.9,50.4c-23.9,26.8-54.4,41.7-89.4,47.4c-12.5,1.9-25.1,2.8-37.8,2.8
	c-169.7,0.2-339.5,0.2-509.2,0.1c-39.6,0-79.3,0.1-118.9,0.2c-28,0-55.2-5-80.6-16.1c-12.2-5.4-22.3-15.4-33.9-22.7
	c-10.3-6.5-15.5-17-22.7-26C40.7,222.3,40.3,221.2,40,220.1z"/>
<path class="st3" d="M171.1,25c-14.9,2.4-29.8,4.7-44.7,7.3c-2,0.4-4.9,2.1-5.4,3.8c-2.2,7.2-7.9,11-13.4,14.9
	c-6,4.2-12.2,8-18.7,11.4c-5.1,2.7-10.2,2.9-14.2-2.6c-0.6-0.8-3-1.3-3.7-0.8c-3.1,2.3-5.9,5-9,7.7c3.4,3.2,9.4,2.7,8.3,8.5
	c-0.8,4-7.8,10.9-11.3,10c-2.6-0.7-4.5-4.1-7.6-7c-2.3,2.8-5.2,6.7-8.6,10c-2.3,2.3-5.4,3.9-8.1,5.9C38.2,81.2,47.4,72.1,56.3,63
	c23.1-23.7,51.6-37.3,83.9-42.7c14.4-2.4,29-3.6,43.6-3.6c207.7-0.2,415.5-0.3,623.2-0.2c41.8,0,79.1,12.8,112.5,37.4
	c5,3.7,9,8.8,13.4,13.2c-2.4-0.9-5.2-1.4-7.2-2.9c-24.9-19.4-53-31.6-84-37.5c-4.2-0.8-8.6-1.1-12.8-1.6l-3.9-0.1H601
	c-1.9-0.4-3.9-0.7-5.8-0.9c-139.4,0-278.9,0-418.3,0C174.9,24.3,173,24.6,171.1,25z"/>
<path class="st4" d="M279.8,192.3c0.5,1.8,1,3.5,1.5,5.3c0.4,1.3,0.5,2.6,0.5,3.9c-0.4,5.3-7.8,10.8-16.6,12.4
	c-5.8,1.1-9.8-0.9-12.4-6.7c-3.7-8.3-7.3-16.7-10.8-25.2c-1-2.5-2.1-3.5-5.1-3.4c-7.4,0.4-14.9,0.1-22.9,0.1c0,7.2,0,14,0,20.7
	c-0.1,9.5-3.2,12.9-12.8,13.4c-2.3,0.2-4.7,0.1-7-0.2c-7.4-1-10.3-3.9-10.3-11c-0.1-35.5,0.1-70.9,0.1-106.4
	c2.8-6.5,8.6-7.1,14.6-7.2c11-0.1,21.9,0,32.9,0c25.2,0,41.5,12.2,48.2,36c2,13.3,0,25.7-7.8,36.9c-1.7,2-4.8,3.1-3.1,6.8
	C272.6,176,276.1,184.2,279.8,192.3z M214.2,135.2v13.1c8.1,0,15.8,0.6,23.3-0.1c10.3-1.1,15.2-10.1,11.6-20.1
	c-1.2-4.9-5.4-8.4-10.5-8.7c-8-0.8-16.1-0.2-24.4-0.2V135.2z"/>
<path class="st4" d="M702,159c0,13.6,0.1,27.3,0,41c0,9.5-3.5,13-12.9,13.1c-14.6,0.2-17.1-2.2-17.1-17c0-9.2,0.1-18.3,0-27.5
	c0-2.7-0.3-5.3-1-7.9c-1.5-5.3-5.1-7.5-10.5-7.1s-8,3.6-8.3,8.4c-0.6,9.3-0.5,18.6-0.7,27.9c-0.1,4.5,0.1,9-0.3,13.5
	c-0.5,5.8-3,8.5-8.6,9.3c-4,0.5-8,0.6-11.9,0.1c-6-0.7-8.7-3.4-9-10c-0.5-11.3-0.3-22.6-0.5-33.9c0-2.8-0.3-5.6-1-8.4
	c-1.2-4.6-4.4-6.9-9.2-6.9s-8,2.4-9,7c-0.7,3.1-1,6.2-1.1,9.4c-0.1,10.2,0,20.3,0,30.5c0,8.6-3.5,12.2-11.9,12.6
	c-18,0.8-18.3-4.2-18.2-17.2c0.3-21.8,0.2-43.6,0.3-65.4c3.7-7.7,10.6-7.3,17.5-6.9c6.6,0.4,11,3.1,11.7,11.2
	c6.1-8.4,13.3-12.6,23.1-11.4c9.5,1.2,16.5,6.2,21.7,14.2c1.4-1.5,2.2-2.6,3.1-3.5c17.2-18.5,43.5-12.4,50.9,11.9
	C700.4,150.2,701,154.6,702,159z"/>
<path class="st5" d="M801.9,150.2c0.1,3.4,0.2,6.9,0.2,10.3c-0.1,6.5-3.1,11.6-8.2,15.5c-5.4,0.7-10.7,1.8-16.1,2
	c-10.7,0.3-21.5,0.1-32.2,0.1l-0.9,1.5c2.2,2.2,4.2,4.9,6.8,6.4c8.6,5.1,17.7,3.6,26.6,0.8c10.5-3.4,11.7-3.2,17.9,5.4
	c3.7,12.1,0.8,17.7-11.5,20.8c-12.1,3.1-24.8,3.4-37,0.8c-19.8-4.2-33.9-22.2-34.3-42.9c-0.1-3.1,0-6.3,0-9.4
	c0.3-0.6,0.5-1.2,0.7-1.8c3.7-20.9,19.6-35.7,40.7-37.8C779.5,119.5,793.3,127.8,801.9,150.2z M745,162.3c7.8,0,15.2,0.1,22.7,0
	c4.5-0.1,6-3.6,4.5-6.9c-1.4-2.8-3.9-5-6.9-6.1C756.4,146.9,747.5,152.7,745,162.3z"/>
<path class="st5" d="M368,192.2c3.7,12.1,0.8,17.7-11.5,20.8c-12.1,3.1-24.8,3.4-37,0.8c-19.8-4.2-33.9-22.2-34.3-42.9
	c-0.1-3.1,0-6.3,0-9.4c0.3-0.6,0.5-1.2,0.7-1.8c3.7-20.9,19.6-35.7,40.7-37.8c25-2.4,38.9,5.8,47.4,28.3c0.1,3.4,0.2,6.9,0.2,10.3
	c-0.1,6.5-3.1,11.6-8.2,15.5c-5.4,0.7-10.7,1.8-16.1,2c-10.7,0.3-21.5,0.1-32.2,0.1l-0.9,1.5c2.2,2.2,4.2,4.9,6.8,6.4
	c8.6,5.1,17.7,3.6,26.6,0.8C360.6,183.4,361.8,183.6,368,192.2z M317.1,162.6c7,0,13.7,0.1,20.3-0.1c3.1-0.1,6.6-0.2,7.1-4.6
	s-1.7-7-5.5-8.4C330.1,146.2,319.2,152.5,317.1,162.6z"/>
<path class="st5" d="M556.9,130.3c0.1,24.1,0.2,48.2,0.2,72.4c0,5.7-2.4,8.7-8.1,9.6c-3.9,0.6-7.9,0.8-11.9,0.4
	c-5.4-0.4-9.1-3.1-9.4-9.4c-0.6,0.3-1.2,0.6-1.8,1c-12.4,11.1-28.5,11.5-41.6,0.7c-10.3-8.5-16.1-19.5-16.5-32.8
	c-0.4-14,0-27.9,0.1-41.9c3.3-7.7,10.2-7.1,16.8-7.1s11.5,2.4,13.1,9.4c0,9.1,0.1,18.3,0.1,27.4c0,3.1-0.3,6.3-0.1,9.4
	c0.5,8.4,6.2,13.6,14.7,13.4s14.3-5.9,14.5-14.4c0-2.8-0.1-5.6-0.2-8.4c0-9.2,0.1-18.3,0.1-27.5c1.6-7,6.4-9.5,13.1-9.4
	S553.6,122.5,556.9,130.3z"/>
<path class="st6" d="M450.8,129.4c4,4.7,1.8,9.1-0.6,13.5c-1,1.9-2.3,3.6-3.4,5.3c-3.8,3.1-7.6,2.2-11.6,0.3
	c-6-2.8-12.2-4.3-18.8-2.6c-1.6,0.4-2.9,1.8-4.3,2.8c1.1,1.5,1.9,3.8,3.4,4.3c3.9,1.3,7.9,2.3,12,2.9c13.5,2.7,25.9,6.6,29.3,22.5
	c1.9,24.7-8.4,33.6-31.9,35.9c-12.1,1.2-23.5-0.6-34.2-6.1c-9.5-4.9-10.2-6.9-6.5-16.8c0.8-1.1,1.5-2.1,2.2-3.2
	c4.3-6.6,7.2-7.6,14.6-4.4c3,1.3,5.8,3.6,8.9,4.3c5.3,0.9,10.6,1.4,16,1.5c1,0,2.1-1.8,3.1-2.7c-0.9-1-1.7-2.5-2.9-2.9
	c-2.3-0.9-4.7-1.5-7.2-1.9c-10.5-1.7-20.2-5.3-28-12.9c-5.6-8.7-7-18.1-5.3-28.2c3.3-10.8,11.2-16,21.7-18
	C422.7,120.1,437.2,121.8,450.8,129.4z"/>
<path class="st7" d="M702,159c-0.9-4.4-1.6-8.8-2.8-13.1c-7.3-24.3-33.6-30.4-50.9-11.9c-0.9,1-1.8,2-3.1,3.5
	c-5.2-8-12.2-13-21.7-14.2c-9.8-1.3-17,3-23.1,11.4c-0.6-8.1-5-10.8-11.7-11.2c-7-0.4-13.8-0.7-17.5,6.9c0-2.7-0.1-5.3-0.1-8
	c0-7.2,2.9-10.7,9.9-12.1c9.5-1.9,16.4,1.4,20,10.2c6-7,12.8-11.7,22.5-10.4c9.2,1.3,15.9,6.2,21.6,14c2-1.9,3.9-3.5,5.6-5.2
	c17.8-17.8,42.3-6.2,47.3,10.7c2.3,7.8,2.8,16.2,4.1,24.4C702.1,155.7,702.1,157.3,702,159z"/>
<path class="st8" d="M279.8,124.2c-6.7-23.8-23-36-48.2-36c-11,0-21.9-0.1-32.9,0c-5.9,0.1-11.8,0.6-14.6,7.2c0-2.3-0.1-4.7-0.1-7
	c0-8.7,2.4-12.6,11-12.9c16.4-0.5,33.2-1.8,49.1,1.1c23.7,4.3,35.1,20.6,36.8,43.4C281,121.4,280.1,122.8,279.8,124.2z"/>
<path class="st8" d="M373.9,150.2c-8.6-22.4-22.4-30.7-47.4-28.3c-21,2-37,16.9-40.7,37.8c-0.2,0.6-0.4,1.2-0.7,1.8
	c0.7-7.2,0.2-14.9,2.3-21.6c5.6-17.9,18.8-27.9,37.1-30.6c6.5-1,13.2-0.9,19.7,0.3C364.3,113.2,374.6,127.7,373.9,150.2z"/>
<path class="st8" d="M801.9,150.2c-8.6-22.4-22.4-30.7-47.4-28.3c-21,2-37,16.9-40.7,37.8c-0.2,0.6-0.4,1.2-0.7,1.8
	c0.7-7.2,0.2-14.9,2.3-21.6c5.6-17.9,18.8-27.9,37.1-30.6c6.5-1,13.2-0.9,19.7,0.3C792.3,113.2,802.6,127.7,801.9,150.2z"/>
<path class="st8" d="M450.8,129.4c-13.7-7.6-28.1-9.3-43.3-6.3c-10.5,2.1-18.4,7.2-21.7,18c-3.2-12.3,3.1-24.8,14.9-29
	c15.8-5.6,31.3-4.5,46.5,2.3C453.6,117.3,454.3,120.9,450.8,129.4z"/>
<path class="st9" d="M815,275.1c-1.9,0.5-3.8,0.8-5.8,0.9c-211,0-421.9,0-632.9,0c-2.1-0.1-4.2-0.5-6.3-0.9h76h561
	C809.7,275.1,812.3,275.1,815,275.1z"/>
<path class="st10" d="M368,192.2c-6.2-8.6-7.4-8.8-17.9-5.4c-8.9,2.9-18,4.3-26.6-0.8c-2.6-1.5-4.5-4.2-6.8-6.4l0.9-1.5
	c10.7,0,21.5,0.2,32.2-0.1c5.4-0.1,10.8-1.3,16.1-2C368.2,181.2,372.6,186.2,368,192.2z"/>
<path class="st10" d="M796,192.2c-6.2-8.6-7.4-8.8-17.9-5.4c-8.8,2.9-18,4.3-26.6-0.8c-2.6-1.5-4.5-4.2-6.8-6.4l0.9-1.5
	c10.7,0,21.5,0.2,32.2-0.1c5.4-0.1,10.8-1.3,16.1-2C796.2,181.2,800.6,186.2,796,192.2z"/>
<path class="st11" d="M456.8,178.6c-3.4-15.9-15.8-19.8-29.3-22.5c-4.1-0.7-8.1-1.7-12-2.9c-1.5-0.5-2.2-2.8-3.4-4.3
	c1.4-1,2.7-2.4,4.3-2.8c6.5-1.7,12.8-0.3,18.8,2.6c4,1.9,7.8,2.8,11.6-0.3c0.3,0.6,0.4,1.4,0.8,1.8
	C456.6,157.7,457.8,167.8,456.8,178.6z"/>
<path class="st12" d="M171.1,25c1.9-0.4,3.8-0.7,5.8-0.9c139.4,0,278.9,0,418.3,0c2,0.1,3.9,0.4,5.9,0.9c-1.5,0-3,0.1-4.5,0.1h-421
	C174.1,25.1,172.6,25,171.1,25z"/>
<path class="st11" d="M391.1,169.2c7.8,7.6,17.4,11.2,28,12.9c2.5,0.3,4.9,1,7.2,1.9c1.1,0.5,1.9,1.9,2.9,2.9c-1,1-2.1,2.8-3.1,2.7
	c-5.4-0.1-10.7-0.6-16-1.5c-3.1-0.6-5.9-3-8.9-4.3c-7.3-3.2-10.2-2.2-14.6,4.4c-0.7,1.1-1.5,2.1-2.2,3.2c-5-7.6,0.5-13,4-18.8
	C389,171.4,390,170.3,391.1,169.2z"/>
<path class="st8" d="M497.9,132.6c-1.6-7-6.6-9.3-13.1-9.4s-13.4-0.7-16.8,7c0-3-0.1-6-0.1-9c0.2-7.2,2.9-10.3,10.1-11.1
	c2.7-0.3,5.3-0.3,8-0.1c7.6,0.5,11.5,4.4,11.9,12C498.1,125.7,497.9,129.2,497.9,132.6z"/>
<path class="st8" d="M556.9,130.3c-3.3-7.8-10.2-7.1-16.8-7.1s-11.5,2.4-13.1,9.4c0.2-4.8,0.2-9.6,0.8-14.4c0.4-4,3.6-7.2,7.7-7.4
	c4.1-0.6,8.2-0.8,12.3-0.4c6.5,0.8,8.9,3.9,9.1,10.4C557.1,124,557,127.2,556.9,130.3z"/>
<path class="st7" d="M526.9,160.1c0.1,2.8,0.2,5.6,0.2,8.4c-0.1,8.5-5.9,14.2-14.5,14.4s-14.2-5-14.7-13.4c-0.2-3.1,0-6.3,0.1-9.4
	c2.9,6.2,7.8,9.9,14.7,9.8C519.4,169.8,524.1,166.1,526.9,160.1z"/>
<path class="st13" d="M279.8,192.3c-3.6-8.1-7.2-16.3-10.9-24.4c-1.7-3.7,1.4-4.8,3.1-6.8c3.1,7.6,6.5,15.2,9,23
	C281.8,186.5,280.2,189.6,279.8,192.3z"/>
<path class="st12" d="M825.1,25h3.9H825.1z"/>
<path class="st14" d="M214.2,135.2v-16c8.3,0,16.4-0.6,24.4,0.2c5,0.3,9.2,3.8,10.4,8.7c-3.6,4.9-9.5,7.5-15.5,7.1
	C227.1,135,220.6,135.2,214.2,135.2z"/>
<path class="st13" d="M214.2,135.2c6.4,0,12.9-0.2,19.3,0c6,0.4,11.9-2.3,15.5-7.1c3.6,10-1.3,19-11.6,20.1
	c-7.5,0.8-15.2,0.1-23.3,0.1L214.2,135.2z"/>
<path class="st15" d="M745,162.3c2.6-9.6,11.5-15.4,20.2-13c3,1,5.5,3.2,6.9,6.1c1.5,3.4,0,6.8-4.5,6.9
	C760.2,162.4,752.8,162.3,745,162.3z"/>
<path class="st15" d="M317.1,162.6c2.1-10.1,13-16.4,21.9-13.1c3.9,1.4,5.9,4.2,5.5,8.4s-4,4.5-7.1,4.6
	C330.8,162.7,324.1,162.6,317.1,162.6z"/>
</svg>
