<svg xmlns="http://www.w3.org/2000/svg" viewBox="0 0 146.32 148.39"><defs><style>.cls-1{fill:#040404;}.cls-2{fill:#7c87a0;}.cls-3{fill:#aeb5c4;}.cls-4{fill:#afb6c4;}</style></defs><g id="Layer_2" data-name="Layer 2"><g id="Layer_1-2" data-name="Layer 1"><path class="cls-1" d="M146.31,81.46c0,9.29,0,23.76,0,38.24,0,5.53-1.47,10.59-5.62,14.44C127,146.89,111.09,151.74,92.9,146c-15.5-4.9-19.75-21.17-9.06-33.35a39.29,39.29,0,0,1,24.42-13.33c2.86-.43,3.84-1.26,3.85-4.36,0-13,.26-25.93.77-38.88.18-4.71-1-7.22-6-8.4-11.8-2.74-23.44-6.17-35.15-9.31-2.6-.69-4.87-1.34-4.75,3,.47,16.63.72,33.27,1,49.91.09,5.47,1,11.19-.27,16.32s-3.87,10.68-7.69,14c-12.75,10.95-27.72,14.81-44.17,9.72-16.75-5.17-20.95-21.73-9-34.48A38.89,38.89,0,0,1,30.13,84.39c3.19-.46,4.19-1.57,4.21-4.68.11-18.63.44-37.26.6-55.88.14-16.53,12.57-27,28.47-23,22.2,5.67,44.23,12,66.25,18.3,9.48,2.73,13.69,8.83,14.22,18.73C144.56,50.69,145.3,63.47,146.31,81.46Z"/><path class="cls-2" d="M130.21,36.06c2.52,7.84,2.88,15.8,2,24s-.27,16.64-.29,25c0,11.84.15,23.67-.13,35.5-.05,2.38-1,5.76-2.78,6.92-9.21,6.16-19.12,10.14-30.46,6.11-3.53-1.25-6.94-2.83-6.5-7.62,10.51-4,20.94-8,31.42-12,2.53-1,3.18-2.62,1.11-4.83.38-3.33,1.13-6.67,1.16-10,.11-16,0-32,0-48,0-9.8,0-10-9.44-12.89C100.22,33.31,84,28.56,67.8,23.87c-6.14-1.77-10.49.88-11.95,7a31.55,31.55,0,0,0-1,6.39c-.37,14.13-.76,28.27-.89,42.4-.06,7.47.29,15,.66,22.42.33,6.79-2.38,11.23-8.81,13.9-8,3.33-15.92,5.72-24.59,3-7.21-2.29-8.33-5.37-4.6-12.09.84.35,1.76,1.21,2.4,1,8.07-2.82,16-5.68,24-8.86,1.22-.48,1.83-2.5,2.7-3.88.72-2.12,2.14-4.25,2.15-6.38.12-19.28,0-38.56,0-57.84,0-3.94-2.42-8.2.92-11.9a66.58,66.58,0,0,1,8.37.27c11,1.73,22.28,3.06,33.14,5.61C103.75,28,116.88,32.32,130.21,36.06Z"/><path class="cls-3" d="M130.22,36.14c-13.34-3.75-26.56-7.94-40-11.1-10.87-2.55-22-3.93-33.06-5.66a65.55,65.55,0,0,0-8.43-.28c3.71-5.94,7.14-7.57,13.58-5.86,20.69,5.49,41.33,11.17,62,16.62C127.83,30.78,129.88,32.51,130.22,36.14Z"/><path class="cls-4" d="M124.67,109.09c2.07,2.22,1.4,4-1.13,5-10.48,4.09-21,8-31.52,12,4.1-10.93,13.79-13,23.59-14.92C118.65,110.61,121.65,109.81,124.67,109.09Z"/><path class="cls-4" d="M45.78,95.11c-.86,1.38-1.42,3.52-2.65,4-7.93,3.18-16,6-24.06,8.85-.64.22-1.65-.63-2.48-1,4-7.23,11.51-8.33,18.36-10.38C38.4,95.56,42.16,95.57,45.78,95.11Z"/></g></g></svg>