<svg xmlns="http://www.w3.org/2000/svg" viewBox="0 0 165.63 167.24"><defs><style>.cls-1{fill:#030303;}.cls-2{fill:#7b879f;}.cls-3{fill:#7c88a1;}.cls-4{fill:#7c88a0;}.cls-5{fill:#b1b7c6;}.cls-6{fill:#26282e;}.cls-7{fill:#7d88a0;}.cls-8{fill:#afb6c5;}</style></defs><g id="Layer_2" data-name="Layer 2"><g id="Layer_1-2" data-name="Layer 1"><path class="cls-1" d="M125.8,16.37c4-4.28,7.53-8.33,11.41-12,6.12-5.7,10.62-5.82,17.28-.69a57.23,57.23,0,0,1,7.38,6.7c4.78,5.25,5.07,11.56.47,17.17-6,7.31-12.36,14.32-18.82,21.74,4.77,7.82,5.61,16.85,5.39,26.07-.23,10,0,20-.92,29.93-1,10.1-5.82,17.78-16.37,21-1.69.51-3.31,3.49-3.73,5.57-1.26,6.33-1.38,12.91-3,19.14-1.84,7.22-4.9,9.06-12.32,9.13-15.2.16-27.35-7.3-38.93-16-4.65-3.47-9-7.39-14.25-11.79-9.15,9.37-18.27,18.82-27.5,28.16s-16.82,8.83-25.16-1.11a29.85,29.85,0,0,1-2.12-2.77c-6.68-10.1-6.35-13.52,2.2-22,5.9-5.86,11.87-11.66,17.64-17.32-9.41-20.24-9.6-40.47-3-60.94C23.52,49.93,31.1,45.19,38.77,45a30.35,30.35,0,0,1,5.47.34c5.14.82,8.35-1.33,11.86-5.26C69.91,24.64,85.79,12,106.8,7.56,115.42,5.75,120.75,8.14,125.8,16.37Z"/><path class="cls-2" d="M15.56,147.33C26.42,135.62,37,123.65,48.19,112.25c31.37-32,63-63.72,94.49-95.57,4.26-4.3,6.91-3.95,10,1.23,1.44,2.43,1,4.16-1,6.11Q99.09,75.58,46.58,127.24c-7.48,7.36-14.84,14.83-22.27,22.25-4.74,4.74-4.92,4.73-8.84-.65-.58-.79-1.07-1.65-1.61-2.47Z"/><path class="cls-2" d="M70.65,123.54,113.8,80.48c0,2.66,0,5.75,0,8.84.35,17.1.77,34.2,1.07,51.3.11,6.5-1.55,7.8-7.82,6.08C92.5,142.7,81.3,133.41,70.65,123.54Z"/><path class="cls-3" d="M109.31,31.86c-16,16-32.6,32.41-48.63,48.37.17-7.71.38-15.48.55-23.19.18-.29.63-.95.81-1.24.63-.17,1.24-.18,1.64-.58,10.31-10.36,23.77-15.8,36.55-22C102.77,31.93,106.37,32.27,109.31,31.86Z"/><path class="cls-4" d="M47.49,92.84c-3.75,4.32-7.79,8.92-12.53,14.38-4.59-13.86-5.74-26.58-1.89-39.43,4.61-.65,9.42-1.28,14-1.93C47.2,74.89,47.4,83.81,47.49,92.84Z"/><path class="cls-5" d="M109,32.11c-2.94.41-6.23.11-8.77,1.35-12.77,6.24-26.11,11.63-36.43,22-.4.4-1.23.37-1.85.55.62-1.81.73-4.14,2-5.34C75.48,39.26,87.09,27.87,103,22.58a31,31,0,0,1,7.2-1.6c1.41-.11,4,.53,4.14,1.3a7.86,7.86,0,0,1-.72,5.43C112.6,29.47,110.61,30.67,109,32.11Z"/><path class="cls-6" d="M47.2,93.12Q47.05,79.58,46.91,66q.93-4.47,1.85-8.92l12.67-.24L60.92,80Z"/><path class="cls-7" d="M127.79,114c0-16.31-.16-31.88.22-47.44.05-1.8,3.09-3.52,4.75-5.27.71,1.8,2,3.58,2,5.39.18,11.81.06,23.63.11,35.44C134.93,107.23,132.52,110.78,127.79,114Z"/><path class="cls-8" d="M48.76,57.11q-.91,4.45-1.85,8.92L33.06,68C33.33,59.4,40.28,54.59,48.76,57.11Z"/></g></g></svg>