<svg xmlns="http://www.w3.org/2000/svg" viewBox="0 0 264.74 266.49"><defs><style>.cls-1{fill:#040303;}.cls-2{fill:#da003e;}.cls-3{fill:#ab0239;}.cls-4{fill:#ed6893;}.cls-5{fill:#50011e;}.cls-6{fill:#fcfafa;}</style></defs><g id="Layer_2" data-name="Layer 2"><g id="Layer_1-2" data-name="Layer 1"><path class="cls-1" d="M140.18,266.49c-5.66,0-11.13-.25-16.8-.25-3-.62-6-.68-9-1.08-55.3-7.36-101.16-50-112.29-104.43C1.28,156.8,1,153,0,145.34c0-10,.07-13.64.07-23.64.42-5.29.77-7.91,1.17-10.58C9.27,57.63,52.32,13,105.55,2.9c4.93-.93,9.76-1.36,14.68-2.33C122.56.57,125,0,127.3,0h9.27c2,0,4.48.31,6.5.41a24.29,24.29,0,0,0,3.67.54A131.45,131.45,0,0,1,262.49,108.24c1,5.25,1.1,10.44,2,15.69.49,7.87,0,14,0,21.33-.62,4.61-.67,6.29-1.07,9.12C255.92,207.76,210.61,254.7,157.53,264,151.79,265,145.93,265.5,140.18,266.49Z"/><path class="cls-2" d="M243.34,91.34c2.22,7.41,5.51,14.69,6.43,22.26,2.06,17,2.45,34.11-2.54,50.84-.46,1.56-1.23,3-1.85,4.57-1.32,1.44-2.42,3.82-3.46,5.45-8.7,13.6-17.39,28.06-29.93,38.54-20.73,17.33-46.57,27.29-73.37,29.93-21.54,2.13-42.75-3.41-61.73-13.2-30.43-15.7-49.56-42.1-60.55-74.25-.71-2.07-1.07-4.69-2.25-6.6-4-19.35-.61-38,5.23-56.46.18-.58.78-1,1.18-1.52l.81-1-.08,0a15.79,15.79,0,0,0,3.42-3.56c10.33-14,22.16-26.69,36.2-37C80.09,35.33,101.72,25,125.61,22.92c20.47-1.76,41.75,3.93,60.06,13.11C208.4,47.42,225,65,239.18,85.83,240.41,87.63,241.65,89.85,243.34,91.34Z"/><path class="cls-3" d="M14.09,148.88c1.18,1.91,2.76,3.68,3.47,5.75,11,32.15,30.41,57.51,60.85,73.2,19,9.79,39.53,15.14,61.08,13,26.79-2.65,50.44-13.24,71.18-30.57,12.54-10.48,22.09-23.29,30.79-36.89a34.32,34.32,0,0,1,3.92-4.37c-3.38,15.51-11.57,28.63-21.4,40.6-20.68,25.17-47.7,38.59-80,42.55C88.25,259,33,222.22,17.41,165.69,15.89,160.2,15.18,154.49,14.09,148.88Z"/><path class="cls-4" d="M243.34,91.34c-1.69-1.49-3.78-2.7-5-4.51C224.15,66,206.77,48.76,184.05,37.37c-18.32-9.18-37.75-14-58.22-12.19C102,27.25,80.56,36.45,61.31,50.56A170.1,170.1,0,0,0,25,87.31c-.86,1.17-2.49,1.79-3.77,2.66,2.54-11,8.68-20,15.36-28.7q31.2-40.52,82-47.07c52.63-6.73,107.18,26.19,124.66,76.15A4.06,4.06,0,0,1,243.34,91.34Z"/><path class="cls-5" d="M132.72,98.86c7.05-7.44,13.55-14.5,20.28-21.34,5.13-5.21,10.38-10.33,15.87-15.14,4.18-3.65,11.43-3.7,16.18.37A159.59,159.59,0,0,1,202.77,80.2c5.77,6.78,4.61,15.1-1.82,21.49-9.8,9.73-19.46,19.61-29.37,29.23-2.73,2.64-2.6,4.28.06,6.82,9.77,9.3,19.29,18.86,29,28.2,6.65,6.39,8,14.14,2.18,21.4a105,105,0,0,1-16.55,16.43c-7.41,5.87-15.15,4.59-21.83-2.28-10.33-10.6-20.68-21.18-31.4-32.17-1.85,1.69-3.2,2.83-4.42,4.08q-14,14.26-27.95,28.57c-6.52,6.7-15.94,7.36-22.8,1.12a170.32,170.32,0,0,1-15.07-15.21c-5.72-6.72-5.53-13.54.38-20.25,10.46-11.85,21.2-23.44,31.71-35C88,125.37,81.17,118.17,74.3,111c-4.15-4.31-8.72-8.27-12.49-12.88C57,92.26,57,86.54,62,80.92A229.23,229.23,0,0,1,80.33,62.64C85.41,58.1,92.85,58.91,97.94,64,109.28,75.25,120.53,86.62,132.72,98.86Z"/><path class="cls-6" d="M177.13,72.68l17.51,16.2L158.54,125c-7.68,7.69-7.87,9.84-.36,17.59,9.85,10.17,19.78,20.26,30,30,3.81,3.62,4,6.27.31,9.72a98,98,0,0,0-7.7,7.82c-3.15,3.65-5.73,3.36-9-.06-9.11-9.49-18.46-18.75-27.75-28.07-10.57-10.6-12-10.6-22.38-.15-9.29,9.32-18.61,18.62-27.76,28.07-3,3.09-5.79,3.73-9,.62-3.67-3.6-7.43-7.13-10.71-11.06-.62-.74.3-3.67,1.36-4.77,6.67-7,13.65-13.68,20.39-20.61q6.78-7,13.16-14.33c4.41-5.08,4.33-8.12-.68-13.26-8.36-8.6-16.94-17-25.47-25.42-3.42-3.38-7-6.66-12.06-11.55L88.34,72.84C99,83.48,108.47,93,118,102.51c3.07,3,6.36,5.87,9.52,8.83,3.66,3.45,7.17,2.8,10.54-.38,7.25-6.86,14.54-13.69,21.68-20.67C165.26,85,170.53,79.4,177.13,72.68Z"/></g></g></svg>