<svg xmlns="http://www.w3.org/2000/svg" viewBox="0 0 1147.42 359.3"><defs><style>.cls-1{fill:#020202;}.cls-2{fill:#5e697e;}.cls-3{fill:#a4aab6;}.cls-4{fill:#524e66;}</style></defs><g id="Layer_2" data-name="Layer 2"><g id="Layer_1-2" data-name="Layer 1"><path class="cls-1" d="M.52,181.3v-12c.4-5.1,0-10.3,0-15.4,0-38.2-.1-76.5-.2-114.7,0-.6.5-1.7.2-2.4V29.6c.7-2.6.2-5.5.9-8.1C4.32,10,13.72,1.4,23.92,1.3c43.8-.4,87.6-.9,131.4-1Q456.07.15,756.82.2c2.2,0,4.3-.2,6.5-.2,1.8.1,3.6.2,5.5.2h172.7c11,0,22-.1,32.9-.2,1.7.1,3.3.2,5,.2,46.6.3,93.1.7,139.7.7,10.5,0,18.4,3.9,23.9,12.5,2,3.2,3,7.1,4.4,10.7v3c-.3,1.5-1,3.1-1,4.6V328.9a24.75,24.75,0,0,0,.3,4.7c0,1-.1,1.3-.1,2.3-.1,1.7-.1,1.7-.3,2.1-5.9,15.8-13.5,21.1-30.3,21.1H697.82c-2.2,0-4.3.2-6.5.2-1.5-.1-3-.2-4.5-.2H268.62c-1.5,0-3,.1-4.5.2a7.72,7.72,0,0,0-1.5-.2h-219c-1.2,0-2.3-.4-3.5,0-4.3,0-8.7.2-13,.2a9.27,9.27,0,0,0-2.4-.4c-14.8-3-21.3-9.4-23.9-24.1A51.53,51.53,0,0,1,0,324.4c.2-11.6.9-23.2.9-34.8.1-21.1-.2-42.2-.2-63.3,0-11,.4-21.9.2-32.9A70.62,70.62,0,0,0,.52,181.3Z"/><path class="cls-2" d="M14.52,244.3c-.1-38.9-.2-77.7-.3-116.6,0-3.8.2-7.6.3-11.4.6-.9.6-2.8.7-3.8,1.1-11.4,1.5-22.2,3.3-33.5,2.2-14.7,3.9-30.6,8.3-44.2.6-1.7,3.7-5,5.3-5.4,5.9-1.6,12-5.4,18-5.4,163.9-.5,329.9-1.4,493.8-1.7h38c176.5,0,353.8,2.1,530.2,2.1,1.5,0,3.7-.1,5.2,0,4.8.3,10,3.1,10.5,8.5,1.3,13.2,2.5,27.4,3.5,40.6s.5,25.2,1.2,38.3c.1.9,0,2.7.6,3.5.1,5.1.3,10.3.3,15.4,0,39.6-.1,79.1-.1,118.7,0,1-.1,2-.2,3-.9,2.7-1.3,16.4-1.7,19.2-2.1,16-1.5,22.4-3.9,38.3-2.5,16.8-17.8,27.7-34.8,27.5-30.1-.2-60.7-.1-90.8,0-299.9.3-598.4-1.5-898.3-1.4-22.2,0-44.4-2.6-66.5-4.8-9.4-.9-11.5-1.2-13.1-10.7-1.7-10.3-3.8-20.5-4.7-30.9-1.2-13.5-1.2-27.2-2.1-40.7C17,247.2,15.42,245.7,14.52,244.3Z"/><path class="cls-3" d="M1133,115.2c-.6-.8-1.6-1.7-1.6-2.5-.8-13.1-1.2-26.2-2.1-39.3s-2.5-26.4-3.8-39.5c-.5-5.4-4.2-7.2-8.9-7.5-1.5-.1-3,0-4.5,0H582.72c-13.7,0-27.3,0-41,.1Q295.87,27,49.92,27.6c-6,0-12.1,1.9-18,3.4-1.6.4-3.5,2.8-3.9,4.6-3.1,14.6-6.2,29.1-8.5,43.8-1.7,11.3-2.1,22.8-3.2,34.1-.1,1-1.1,1.8-1.7,2.7-.1-30-.3-60-.3-90a12.28,12.28,0,0,1,12-11.9q347-.15,694-.2h399.5c8.1,0,14.7,7.1,14.6,15.1-.4,27-.7,53.9-1,80.9C1133.22,111.9,1133.12,113.5,1133,115.2Z"/><path class="cls-4" d="M14.52,244.3c.9,1.5,2.6,2.9,2.7,4.5.9,13.6,1,27.2,2.3,40.7.9,10.3,3,20.6,4.7,30.8,1.6,9.6,3.6,8.8,13,9.7,22.1,2.1,44.3,4.1,66.4,4.1q449.85-.15,899.6-.8c30.1,0,60.2.7,90.3.9,17,.1,28.1-9,30.7-25.8,2.4-16,4-32.1,6.1-48.2.4-2.7,1.7-5.4,2.6-8,.1,19.7.3,39.3.4,59,0,7.9.7,15.9-.2,23.7-.8,7-6,10.4-13,10.5-25,.3-49.9.8-74.9.8-65.1-.2-130.2-.8-195.3-.8q-381.45-.15-762.8.1c-7,0-13.9.9-20.9.8-13.8-.1-27.6-.6-41.4-1-6.2-.2-10.7-5.2-10.7-12.1,0-18.2,0-36.3.1-54.5C14.32,267.2,14.42,255.7,14.52,244.3Z"/></g></g></svg>