<?xml version="1.0" encoding="utf-8"?>
<!-- Generator: Adobe Illustrator 26.1.0, SVG Export Plug-In . SVG Version: 6.00 Build 0)  -->
<svg version="1.1" id="Layer_2_00000171704088325852272900000015762142520918008194_"
	 xmlns="http://www.w3.org/2000/svg" xmlns:xlink="http://www.w3.org/1999/xlink" x="0px" y="0px" viewBox="0 0 1138 455.4"
	 style="enable-background:new 0 0 1138 455.4;" xml:space="preserve">
<style type="text/css">
	.st0{fill:#DC003E;}
	.st1{fill:#AD0038;}
	.st2{fill:#F16A95;}
</style>
<g id="Middle">
	<g>
		<path d="M0.1,346.7c0-27.1,0-54.2,0-81.3c0-34.4-0.4-68.8,0.2-103.1c0.2-14.2,0.5-28.4,0.9-42.7c0.2-9.5,7.7-17.1,15.4-18.9
			c24-5.4,48.3-9.8,72.1-15.8c17.5-4.4,34.2-10.7,51-17c5.5-2.1,11.1-4.2,16.7-5.9c25.5-7.9,51.3-15,77.3-21
			c22.9-5.3,45.9-10.3,68.9-14.9c14.3-2.9,28.7-4.8,43.1-7.1c12-2,23.9-4.5,35.9-5.8c9.1-1,18.1-2.5,27.2-3.3c10-0.9,20-2.7,30-3.8
			c8.3-0.9,16.6-1.4,25-2.1c16.3-1.3,32.7-2.8,49-3.5c3.6-0.1,7.2-0.6,10.8-0.6c26.6,0.1,53.3-0.2,79.9,0.2c15.8,0.2,31.7,1,47.5,2
			c15.3,1,30.7,2.2,46,4c15.2,1.8,30.4,3.7,45.5,5.6c12.9,1.7,25.8,3.5,38.6,5.3c14.6,2,29,4.9,43.5,7.6c16,3,32,6,48,9.3
			c11.2,2.3,22.2,5.3,33.4,7.7c29.4,6.4,58.1,14.9,86.6,24.2c13.1,4.3,25.8,9.7,38.9,13.9c18.5,6,37.6,9.8,56.6,14
			c11.9,2.7,24.1,4.1,35.8,7.7c5.8,1.8,13.2,11.1,13,17.3c-0.7,20.4,1.1,40.7,1,61.1c0,83.3,0,166.6,0,249.9
			c0,8.1-1.4,15.8-8.6,21.5c-5.5,4.3-12,4.7-17.7,3.3c-8.2-2-16.5-2.9-24.7-4.6c-32.1-6.6-64-14.3-95-25
			c-22.1-7.6-44.1-15.5-66.2-22.9c-24.4-8.1-49.1-14.9-74.1-20.8c-23.1-5.4-46.2-10.3-69.6-14.3c-19.3-3.3-38.7-6.4-58.1-9
			c-13.4-1.8-26.8-3.5-40.2-4.9c-15-1.6-29.9-3-45-4.1c-12.3-0.9-24.7-1.1-37-2c-19.6-1.5-39.1-0.6-58.7-0.7c-13.5,0-27,1-40.5,1.9
			c-11.4,0.7-22.8,1.8-34.2,3c-13.3,1.4-26.4,3.6-39.7,4.8c-10.9,0.9-21.6,3-32.4,4.2c-10.6,1.2-21.2,3.1-31.7,5
			c-13.2,2.4-26.2,5.4-39.4,7.8c-19.8,3.6-39.4,8.3-58.8,13.4c-23.1,6-46,12.7-68.6,20.6c-20.4,7.1-40.8,14.1-61.3,21.1
			c-13.8,4.8-28.1,7.9-42.1,11.9c-15.6,4.5-31.5,7.1-47.3,10.6c-7.8,1.8-15.9,2.8-23.9,4.1c-10.7,1.8-19.2-4.5-22-16
			c-0.8-3.2-1-6.6-1-9.9c0-27.4,0-54.9,0-82.3L0.1,346.7z"/>
		<path class="st0" d="M1124.8,164.6c0,2.8,0.2,5.6,0.2,8.4c0,78,0,156,0,234c0,2.3-0.4,6.8-0.4,9.2c-2.8,0.6-2.1,3.5-3.8,5.3
			c-2.5,2.6-5.9,10.1-10.6,9c-6.4-1.6-13.2-0.8-19.6-1.7c-15.9-2.2-33.4-5.3-48.9-9.7c-26.4-7.4-52.6-17.7-78.7-26
			c-17.1-5.4-33.1-11.1-50.2-16.6c-17.3-5.6-34.5-10.6-52.4-14.1c-21.1-4.1-42.2-8.9-63.3-13.1c-20.3-4-40.9-7.8-61.4-10.5
			c-16.1-2.1-30.5-3.4-46.6-5c-15.8-1.5-32.4-3.4-48.2-4.4c-12.4-0.8-24.4-2.1-36.8-2.2c-25.3-0.2-49.6-0.5-74.9,0.8
			c-19.9,1-38.7,0.5-58.6,2.1c-12.5,1-25.7,2-38.2,3.5c-16.6,2.1-32.1,2.3-48.6,4.9c-24.5,3.8-47.1,9.7-71.3,15.3
			c-29.1,6.7-58.6,15-86.8,25c-18.6,6.6-38.1,10.1-57.1,15.5c-34.6,9.8-69.3,21.7-104.7,28.8c-11.8,2.4-22.8,5.9-34.8,6.8
			c-3.4,0.3-9.9-1.6-11.9-4.3c-2.2-2.8-0.9-7-4.2-8.9c0-24,0-50,0-74c0-36.7,0-73.3,0-110c0-0.8,0.1-1.6,0.2-2.5
			c0.2-4.5,0.5-9.9,0.8-13.5c1.7-21.5-3.5-45.1,1.1-65.2c0.8-10.7,1.5-23.6,5.7-33.7c0.9-2.2,6.3-3.2,8.7-3.7
			c13.5-2.8,27.6-5.9,41-8.7c19.5-4.1,36.1-6.5,54.8-13.4c29.7-11,61.2-21.6,92.3-28.4c40.4-8.9,81.4-17.5,122.2-24.1
			c31.4-5.1,63.1-8.8,94.7-12.7c23.7-2.9,47.4-6.4,71.2-6.9c31.1-0.7,62.4-1.7,93.5-0.1c19.4,1,40,3.2,59.3,4.5
			c16.4,1.1,32.6,2.7,48.9,4.2c23.1,2.1,46.4,4.3,69.3,7.7c32.6,4.9,65,10.8,97,18.8c13.2,3.3,28.6,4.7,41.7,8.2
			c19.4,5.1,38.2,9.9,57.3,16.2c33.1,11,66,18.5,99.3,29.1c12,3.8,26.2,5.7,38.2,10c9.1,3.2,11.2,13.1,12.3,22
			c1,7.8,0.8,16.3,2,24.1H1124.8z"/>
		<path class="st1" d="M13.4,415c3.3,2,4.6,5.5,6.8,8.3c2,2.6,4.1,4,7.5,3.8c12.1-0.9,23.8-3.9,35.6-6.2
			c35.3-7.1,69.3-19.2,103.9-29c19-5.4,38-10.7,56.6-17.3c28.2-10,56.6-18.9,85.7-25.7c24.2-5.6,48.6-10,73.1-13.8
			c16.5-2.6,33.1-4.5,49.6-6.6c12.5-1.6,25.1-2.2,37.6-3.2c19.8-1.6,39.7-2.2,59.6-3.2c25.3-1.3,50.6-0.7,75.8-0.5
			c12.4,0,24.8,1.1,37.2,1.9c15.8,1,31.7,2.1,47.5,3.6c16.1,1.6,32.3,3.3,48.3,5.4c20.5,2.7,40.8,6.2,61.1,10.3
			c21.1,4.2,41.7,10.6,62.8,14.7c17.9,3.5,35.5,8.1,52.8,13.7c17.1,5.5,33.8,11.9,50.9,17.4c26.1,8.3,51.7,18.2,78,25.7
			c15.5,4.4,31.3,6.9,47.2,9.2c6.4,0.9,12.9,0,19.3,1.6c4.6,1.1,6.5-3.4,9-6c1.7-1.7,2.6-4.3,5.3-4.9c0,6.8,0.3,13.6,0.2,20.4
			c0,4.4-7.1,9.2-11.6,7.4c-6.8-2.8-14-3.3-21-4.5c-20.4-3.5-40.4-8.6-60.4-13.6c-29.6-7.4-58-18.3-86.5-28.8
			c-21.5-7.9-43.5-14.4-65.7-20.1c-15.1-3.8-30.2-7.6-45.3-11c-19.6-4.4-39.4-8.5-59.3-11.7c-15.9-2.5-31.7-5.4-47.6-7.7
			c-11.9-1.7-23.8-2.9-35.8-4.2c-15.7-1.7-31.4-3.4-47.1-4.9c-5.2-0.5-10.6-0.6-15.8-0.9c-26.7-1.5-53.4-3.1-80.1-2.1
			c-18,0.6-36,1.7-54,3c-14.4,1-28.9,2.4-43.3,4c-14.5,1.7-28.9,4.3-43.5,5.8c-19.8,2.1-39.2,5.9-58.7,9.3c-20.8,3.7-41.4,8.3-62,13
			c-30.3,7-60.3,15.4-89.7,25.7c-16.1,5.6-31.9,12-48,17.5c-7.8,2.7-16.1,4.6-23.9,7.1c-10,3.2-20.1,6-30.2,8.6
			c-22.1,5.8-44.3,10.6-66.9,13.8c-1.9,0.3-3.8,1-5.7,1.5c-5.4,1.4-9.6-1.6-9.8-7.1c-0.2-6.5,0.1-12.9,0.2-19.4L13.4,415z"/>
		<path class="st2" d="M1124.8,164.6c-1.3-7.8-2.7-15.6-3.7-23.4c-1.2-8.9-4.8-15.3-13.9-18.5c-11.9-4.2-24.2-7-36.3-10.8
			c-33.2-10.5-67.2-18.6-100.3-29.6c-19-6.3-38.5-11.5-57.9-16.6c-13.1-3.5-26.9-3.6-40.1-6.9c-32-7.9-64.5-13.7-97-18.7
			c-22.9-3.5-45.9-6.2-69-8.3c-16.3-1.5-32.7-2.9-49-4c-19.4-1.3-38.8-2.1-58.1-3c-31.1-1.5-62.2-1.2-93.3-0.5
			c-23.8,0.5-47.5,3.4-71.2,6.3c-31.5,3.9-63,8.3-94.4,13.4c-40.9,6.6-81.5,14.4-121.9,23.2c-31.1,6.8-60.8,17.9-90.5,28.9
			c-18.7,6.9-38,11.9-57.5,16c-13.4,2.8-27.1,4.6-40.5,7.4c-2.5,0.5-3.6,1.5-4.5,3.7c-4.2,10.1-5.6,20.8-6.4,31.5
			c-1.6,21.5-2.6,43-4.3,64.4c-0.3,3.7,0,7.6-1.6,11.1c0-30.9,0-61.8-0.2-92.8c0-4.6-0.9-9.2-0.9-13.7c0-7,4-11.1,10.8-12.1
			c8-1.2,16.3-1.8,23.9-4.2c9.4-3,19.2-3.5,28.6-6.6c9.3-3,19.3-4.1,28.6-7.4c14.3-5,28.9-9.2,43.3-13.9
			c27.2-8.9,54.6-16.8,82.3-23.6c22.9-5.6,46.1-10.4,69.3-15c18.9-3.8,38-7,57-10c15.1-2.4,30.4-4.1,45.5-6.1
			c15.5-2,31-4.2,46.6-5.9c9.6-1.1,19.4-1.2,29-2.1c16.4-1.7,32.8-2.3,49.3-3.2c8.9-0.5,17.9-0.5,26.8-0.7c17-0.2,34-0.3,50.9,0
			c13.4,0.3,26.8,0.9,40.1,2c11.4,1,22.9,1.8,34.3,2.9c13.7,1.3,27.2,3.6,40.9,4.8c11.4,1,22.8,2.7,34.1,4.3
			c13.9,1.9,27.7,4.2,41.5,6.6c15.4,2.6,30.8,5.3,46.1,8.2c21,4,41.9,8.4,62.7,13.3c32.3,7.6,64,17.1,95.5,27.2
			c26.4,8.5,52.9,16.9,80.2,22.6c11.6,2.4,23.1,4.9,34.8,6.8c7.3,1.1,12.3,3.8,11.5,12.8c-1.2,13.3-0.4,26.7-1,40L1124.8,164.6z"/>
	</g>
</g>
</svg>
