<?xml version="1.0" encoding="utf-8"?>
<!-- Generator: Adobe Illustrator 26.1.0, SVG Export Plug-In . SVG Version: 6.00 Build 0)  -->
<svg version="1.1" id="Layer_2_00000125591631762364549340000013386826238615117233_"
	 xmlns="http://www.w3.org/2000/svg" xmlns:xlink="http://www.w3.org/1999/xlink" x="0px" y="0px" viewBox="0 0 1508.9 1508.2"
	 style="enable-background:new 0 0 1508.9 1508.2;" xml:space="preserve">
<style type="text/css">
	.st0{fill:#5E697E;}
	.st1{fill:#26282E;}
	.st2{fill:#505A6D;}
	.st3{fill:#4A515E;}
</style>
<g id="Middle">
	<g>
		<path d="M753.9,1508.1c-180.3,0-360.7-0.1-541,0.1c-24.2,0-47.7-3.6-70.8-10.4c-24.7-7.2-47.2-18.8-67.8-34.1
			c-17.5-13-31-29.7-42.1-48.3c-13.8-23-22.4-48-27.9-74.1c-3.8-18.1-4.6-36.5-4.1-54.9c0.1-4.8,0-9.7,0-14.5
			c0-345.5,1.1-691.1,0-1036.6c-0.1-18.3,0.2-13.3,0-20c-1-29.3,4.8-57.5,14.5-85c8.6-24.2,21.3-46.1,38.2-65.5
			C65.9,49.9,81.8,39,98.6,29c20.3-12.1,42.5-18.7,65.1-24.4c7.8-2,16-2.8,24.1-3.5c23.1-1.9,46.1-0.8,69.2-0.8
			c349.7-0.1,699.4,0,1049.1,0c18.5,0,36.4,3.7,54.2,8.5c16,4.4,31.4,10.1,46,18.1c12.1,6.6,23.5,14.1,34.1,23
			c22.4,18.8,37.6,42.6,49.1,69.1c7.8,18.1,12.9,37,16.4,56.3c1.7,9.6,2.4,19.5,2.4,29.4c0,114.7,0,229.4-0.1,344.1
			c0,61.1-0.2,122.2,0.1,183.3c0,10.4,0.8,20.9,0.7,31.3c0,6.9-1,13.8-1,20.8c0,174.8,0,349.6,0,524.4c0,16.5-3.3,32.6-7.5,48.5
			c-4.8,18-11.2,35.5-20.4,51.8c-10.5,18.3-22.6,35.2-39,48.9c-13.7,11.5-28.7,20.9-44.8,28.6c-17.8,8.4-36.6,13.5-55.8,17.7
			c-18.8,4.1-37.9,3.9-56.9,3.9c-176.5,0-353,0-529.5,0L753.9,1508.1z"/>
		<path class="st0" d="M1494,754.6c0,153.7,0,307.4,0,461.1c0,27.3,0.8,54.6,0.8,81.9c0,37.1-9,72-26.5,104.7
			c-8.1,15.1-18.2,28.7-30.6,40.5c-16,15-34.4,26.2-54.7,34.5c-12,4.9-24.1,9.5-36.8,12.1c-10.7,2.3-21.6,4.5-32.6,4.5
			c-122.8,0.2-245.6,0.1-368.5,0.1c-224.3,0-448.6,0-672.9,0c-17.8,0-35.6,0.1-53.4,0.7c-41.4,1.3-80.3-8.3-116.4-28.7
			c-18.3-10.3-33.6-24.1-46.7-40.6c-19-24-30-51.6-37.1-80.8c-2.7-11-3.2-22.4-4.7-33.7c-1.2-8.7,0.3-17.1,0.3-25.7
			c0-349.2,0-698.4,0-1047.7c0-8.7,0.2-17.5-0.7-26.1c-1-9.5,0.8-18.8,1.8-28c1.6-15.5,5.2-30.8,10.6-45.6
			c6.5-17.7,14.2-35,25.4-50.1c14.8-20,32.9-36.6,55.4-48.1c17.7-9,35.7-16.8,55.2-21c11-2.4,22.3-3.3,33.5-4.8
			c17.4-2.3,34.7,0.3,52.1,0.3c327.9-0.2,655.8-0.2,983.6-0.2c21.4,0,42.8-0.4,64.3-0.7c32.4-0.5,63.7,6.1,93.4,19.7
			c18.4,8.4,35.3,18.9,49.8,32.9c22.1,21.3,36.1,47.6,45.8,76.5c4.6,13.9,7.3,28,9.1,42.5c3,25.3,1.3,50.7,1,76
			c-0.2,21.3-0.3,42.6-0.4,63.9c0,143.2,0,286.4,0,429.6l0,0L1494,754.6z"/>
		<path class="st1" d="M442.7,1476.9c-38.4,0-70.1,0-101.7,0c-26.4,0-52.8-0.4-79.1,0.4c-15.8,0.5-31.6,0.7-47.3,0.5
			c-29.8-0.4-58.3-7.3-85.8-18.8c-14.5-6.1-28.4-13.1-40.6-23.5c-10.6-9-19.7-19.2-26.8-31c-14.7-24.5-23.3-51.4-28.5-79.3
			c-3.3-17.5-3.4-35.3-3.2-53c2.3-165.6,0.4-331.2,0.8-496.7c0-10.6-0.9-21.2-0.7-31.8c2.2-158,0.4-316,0.9-474
			c0-16.6-1.2-33.2-1-49.8c0.4-32.3,7.4-63.2,20.1-92.8c7.7-18.2,17.7-34.7,32.1-48.5c12.9-12.4,28-21,44.1-28.1
			c17.4-7.8,35.6-13,54.4-16.4c10.1-1.8,20.2-3.6,30.4-3.6c28,0,56-0.4,83.9,0.2c64.6,1.5,129.2,1.2,193.8,0.5
			c91.9-1,183.8-0.5,275.7-0.7c70.6-0.2,141.2-0.7,211.8,0.3c74.6,1,149.2,0.4,223.7,0.4c12.5,0,24.9-0.6,37.4-0.6
			c16.1,0,32.2,0.2,48.3-0.2c22.7-0.6,44.8,3.3,66.5,9.4c21.2,6,41.7,14.1,59.7,27.3c14.8,10.8,27.2,24,36.4,40.2
			c14.1,24.7,22.2,51.5,27.2,79.3c1.5,8.1,2.3,16.3,2.3,24.7c-0.1,59.6,0.4,119.2-0.4,178.9c-0.4,32-0.8,63.9-0.5,95.9
			c1.8,177.2,0.6,354.3,0.5,531.5c0,19.8-0.9,39.6-0.5,59.4c1.7,73.6,0.6,147.2,0.7,220.8c0,25-6.2,49.1-14.8,72.4
			c-6.2,16.8-13.6,33.1-25.1,47.1c-8.1,9.9-17,19.1-27.8,26.2c-23,15-48.5,23.9-75.1,29.9c-15,3.3-30.2,5.3-45.7,5.1
			c-31.4-0.4-62.9-0.8-94.3-0.9c-64.6-0.2-129.1-0.7-193.7,0c-75.5,0.9-150.9,0.7-226.4,0.7c-74.6,0-149.2,0.6-223.8-0.1
			c-38.3-0.4-76.6-0.3-108.1-0.7L442.7,1476.9z"/>
		<path class="st2" d="M1464.3,320c0,10.2,0.3,20.3,0.2,30.5c-0.2,12.3,0.2,24.7,0,37c-0.1,12.7,0,25.3,0,38c0,29,0.3,57.9,0,86.9
			c-2,156.1-1.1,312.3-0.5,468.4c0.2,69.7,0.5,139.5,0.3,209.2c0,20.8-1,41.6-0.4,62.3c0.4,15.3,0.7,30.6,0.6,45.9
			c-1.8,0.2-0.9,1.9-1.2,3.2c-2,7.4-2.8,15.6-5.1,22.8c-11.7,37.4-30,71-59.4,97.6c-23,20.9-51.4,34-81.7,40.4
			c-1.3,0.3-3.1-1.1-3.4,0.8c-1,0-4.5,3.4-105.2,1.1c-35.8,0.5-71.6-0.4-107.4,0.4c-20,0.4-39.9,0.8-59.9,0.6
			c-181.5-2-363-0.6-544.4-0.6c-26.4,0-52.9,1.1-79.3,0.5c-58.8-1.5-117.5-0.1-176.3-0.8c-7.8,0-15.6,1-23.4,1.1
			c-7.8,0-15.5-0.8-23.2-2.2c-0.2-1.5-1.5-0.9-2.7-1.2c-11.7-3.2-23.5-6.6-34.7-11.2c-28.3-11.8-53.5-29.5-72.5-53.5
			c-21.2-26.8-33.2-58-39-91.6c-0.3-1.8,1.1-4.7-1.4-5.4c-0.1-4.6-0.1-5.5-0.3-12.1c-0.1-8.5-0.3-12.1-0.3-18.4
			c0-319.3,0-638.5,0-957.8c0-7.3,0.2-15.6,0.3-22.9c1.4-0.3,1.3-1.1,1.3-2.4c0-9.6,1-17.7,1.3-27.3c0.4-13.8,1.9-27.6,3-41.3
			c1-12.3,3.9-24.4,5.7-36.6c1.6-11.2,3.9-24.1,9.6-34.2c7.5-13.3,14.6-26.3,23-39c10.4-15.7,26.3-24.8,42.3-33.3
			c9.6-5.1,21.5-7.8,32-10.8C186.4,57,210.8,54,236.1,54c354.3,0.3,709.5,0,1063.8,0c4.5,0,10.1,1.7,14.4,2.7
			c29.8,6.7,60.5,15.8,85,35c11.4,8.9,21.6,18,29.9,30.1c8.6,12.5,13.6,27.7,17.5,42.1c4.8,17.6,6.2,36,8.1,54.1
			c1.4,13.1,3.3,26.4,4.4,39.5c0.5,5.5-0.5,10.9,0.1,16.4c2.2,12.2,2.7,24.6,2.2,36.9c-0.1,3.4-1.9,6.5,2.8,8.3V320z"/>
		<path class="st3" d="M1464.7,320c-4.7-1.8-4-6.2-3.9-9.6c0.5-12.3-0.5-24.5-1.7-36.7c-0.6-5.4-0.5-10.9-1-16.4
			c-1.1-13.2-2.7-26.3-4-39.4c-1.9-18.1-4.4-36.1-9.2-53.7c-4-14.4-7.9-28.8-16.5-41.4c-8.3-12.1-19.8-20.8-31.2-29.7
			c-24.6-19.2-53.1-29-82.9-35.7c-4.3-1-8.8-1.4-13.3-1.4c-354.3,0-708.6,0.2-1062.9-0.2c-25.3,0-49.9,2.6-74.1,9.7
			c-10.5,3.1-21.5,5.2-31.1,10.3c-16,8.5-30.9,18.4-41.3,34.1c-8.4,12.8-16.5,25.6-24,38.9c-5.7,10.1-7.8,21-9.4,32.2
			c-1.8,12.2-4.5,24.4-5.6,36.6c-1.1,13.7-4.2,27.1-4.5,40.9c-0.2,9.6-1.8,19.1-1.9,28.7c0,1.3-0.4,2.3-1.8,2.5
			c0-19,0.4-38-0.4-56.9c-0.3-7.1-0.8-14.4-0.9-21.5c0-5.9,1.3-11.9,2.2-17.8c2.4-15.9,6.1-31.5,11.5-46.7
			c4.8-13.5,10.7-26.4,18.5-38.5c13.8-21.5,33.3-35.9,56.5-45.8c8.7-3.7,17.5-6.8,26.4-9.8c14.5-4.8,29.3-8.4,44.5-8.6
			c41.9-0.6,83.8-0.2,125.6-0.2c21.5,0,43,0.6,64.4-0.2c27.4-1,54.9-1,82.3-0.7c181.3,2,362.6,0.5,543.9,0.6
			c19.3,0,38.6-1.1,57.8-0.6c62.2,1.7,124.5,0.3,186.7,0.9c8.8,0,17.6-1.3,26.4-1.1c28.9,0.8,56.7,6.8,83.4,18.1
			c17.7,7.5,34.1,16.9,47.5,31.1c12.6,13.4,20.9,29.5,27.8,46.2c7.8,18.7,12.7,38.3,15.2,58.4c1.9,16,2.1,32.1,0.3,48.2
			c-0.3,2.5,0,5,0,7.5c0,19.2,0,38.3,0,57.5c0,3.3,0.5,6.6,0.7,9.9V320z"/>
		<path class="st3" d="M1314,1463c0.3-1.8,1.7-1.6,3-1.9c30.3-6.4,56.8-20.2,79.8-41.1c29.3-26.6,48.3-59.4,60-96.8
			c2.3-7.3,4-14.7,6-22c0.3-1.3,0.2-2.8,2-3c-0.9,14.7-3.2,29.2-6.9,43.4c-5.9,22.2-14.4,43.4-27.5,62.5c-10.2,15-23.9,26-39.7,34.6
			c-23.4,12.7-48.5,20.1-74.7,24.3C1315.4,1463.1,1314.7,1463,1314,1463L1314,1463z"/>
		<path class="st3" d="M44.3,1300.2c2.5,0.7,2.4,3,2.7,4.8c5.8,33.6,18.6,64.3,39.8,91.1c19,24,43.1,41.5,71.4,53.3
			c11.2,4.7,22.6,8.5,34.3,11.6c1.2,0.3,2.3,0.4,2.5,1.9c-9.3-0.3-18.3-2.6-27.2-4.9c-15.7-4.2-31.2-9.3-45.6-16.9
			c-12.1-6.3-23.5-13.7-33.1-23.6c-7.3-7.5-13.3-16.1-18.4-25.2c-13-23.2-20.7-48.1-24.7-74.3C45.1,1312,43.2,1306.2,44.3,1300.2
			L44.3,1300.2z"/>
	</g>
</g>
</svg>
