<svg xmlns="http://www.w3.org/2000/svg" viewBox="0 0 168.1 167.17"><defs><style>.cls-1{fill:#030303;}.cls-2{fill:#7c87a0;}.cls-3{fill:#7b879e;}.cls-4{fill:#7b879f;}.cls-5{fill:#aeb5c4;}.cls-6{fill:#afb6c5;}.cls-7{fill:#afb5c4;}</style></defs><g id="Layer_2" data-name="Layer 2"><g id="Layer_1-2" data-name="Layer 1"><path class="cls-1" d="M81.22,114.34c-1.17,1.07-2.38,2.11-3.51,3.23Q56.1,139,34.49,160.57c-9.09,9-16.49,8.81-24.91-.76a10.72,10.72,0,0,1-1-1.15C.09,145.89.11,143.8,10,134c.81-.8,1.55-1.67,2.49-2.69-1.58-1-3-1.82-4.25-2.76-8.88-6.48-10.92-18-4.6-26.92a39.12,39.12,0,0,1,25-16.09l5.67-1.14c0-14.73-.09-29.21,0-43.68.06-6.65.44-13.3.83-19.94C35.81,9.25,47.79-1.32,58.91,1.19c19.1,4.3,38.08,9.28,56.81,15,7.23,2.2,12,1.61,16.53-4.45A52.52,52.52,0,0,1,141.19,3c4.78-3.92,9.07-3.94,14.19-.6.14.09.28.18.41.28,14.28,10.67,16.71,17.2,4.24,31.14-4.22,4.72-8.84,9.07-13,13.79a8.54,8.54,0,0,0-2.24,5.16q.51,33.17,1.45,66.33c.19,6.55-1.33,12.33-6.22,16.68-12.25,10.91-26.41,16-42.81,12.36C79.45,144.23,74,132.08,81.22,114.34Zm-13.47-76v36.1L96.1,46.06Zm20,69.19,24-8.91V84.18Z"/><path class="cls-2" d="M22.14,153.75c-2.28-2.79-4.13-5.06-5.81-7.1,5.75-6,11.15-11.81,16.75-17.43Q88.91,73.08,144.78,17c4.62-4.65,6.63-4.61,10.08.39,1.93,2.81,1.26,4.76-1,6.92C140,37.46,126,50.5,112.39,64,83.63,92.45,55.1,121.17,26.48,149.78,25.31,151,24.05,152,22.14,153.75Z"/><path class="cls-3" d="M123.75,110.45c.71-2.42,2.26-4.88,2.25-7.3,0-10.14-.85-20.29-.44-30.4.12-3.19,3.19-6.26,4.91-9.39l1.64.62v9.73c0,15.66-.1,31.33.08,47,.06,4.81-1.91,7.7-6.06,9.84-9.12,4.7-18.39,7.73-28.56,3.69-3.38-1.35-6.25-3.46-5.29-7.95,10.83-4.08,21.36-8,32.09-12.28C126.33,113.2,126.75,111.23,123.75,110.45Z"/><path class="cls-4" d="M112.39,31.44c-2.4,4.17-5.8,4.63-10.26,3.22-10.73-3.41-21.62-6.29-32.46-9.33-9.2-2.57-14.24,1-14.51,10.47-.45,15.31-1.07,30.62-.86,45.92.08,6.27-1.35,11-6.59,14.37-.29-.3-.58-.59-.86-.89.43-2.08,1.22-4.16,1.23-6.24Q48.16,62.49,48,36c0-3-.69-5.92-.7-8.89,0-1.88.8-4.11,1.16-6,9.79-2.32,19.35-.33,28.83,1.57C89,25.06,100.71,28.6,112.39,31.44Z"/><path class="cls-5" d="M112.19,31.56c-11.68-2.84-23.28-6-35-8.41-9.48-1.9-19.09-4-28.88-1.68,2.45-6,6.73-9.18,12.06-7.77,18.13,4.82,36.16,10,55.74,15.47Z"/><path class="cls-4" d="M42,101.44c-5.73,5.93-11.24,12.1-17.28,17.69-3.08,2.85-6.18-.16-8.62-2-2.93-2.21-2.4-5.25.08-7.83,1.68-.5,3.21-.79,4.9-1.32Z"/><path class="cls-6" d="M124,110.41c3,.77,2.6,2.91.64,3.71-10.72,4.33-21.6,8.29-32.43,12.38,3.82-9.57,12.3-12.08,21.18-14C116.9,111.8,120.44,111.12,124,110.41Z"/><path class="cls-7" d="M42,101.44,21.07,108c-1.69.53-3.38,1-5.07,1.52,1.9-2.32,3.38-5.27,5.77-6.83,6.91-4.53,14.93-5.8,23-6.47l1.35,1.36Z"/><path class="cls-4" d="M46.1,97.59,44.69,96.2c.69-.33,1.56-.71,2.24-1,.28.3.54.6.83.9Z"/></g></g></svg>