<svg xmlns="http://www.w3.org/2000/svg" viewBox="0 0 131.82 153.18"><defs><style>.cls-1{fill:#030304;}.cls-2{fill:#7c88a1;}.cls-3{fill:#282a30;}.cls-4{fill:#7c88a0;}.cls-5{fill:#b1b7c6;}.cls-6{fill:#768096;}.cls-7{fill:#afb5c4;}.cls-8{fill:#aeb5c3;}</style></defs><g id="Layer_2" data-name="Layer 2"><g id="Layer_1-2" data-name="Layer 1"><path class="cls-1" d="M131,78.34c0,6.8.62,13.67-.15,20.38C129.77,108.43,125,116,115,118.94c-3.41,1-4.14,3.28-4.5,6.29-.73,6.25-1.13,12.6-2.62,18.68-1.74,7.06-4.94,9-12.27,9.25a43.78,43.78,0,0,1-25.93-7.55,322.6,322.6,0,0,1-29.18-22.45c-5.22-4.44-10.51-7.06-17.42-7.22-11.51-.26-17.62-6.25-20.29-17.51C-.75,83.55-1.15,68.93,3,54.07c3-10.71,9.69-16.88,20.71-15.87,7.57.7,12-1.67,17.26-7.39C54.07,16.54,69.34,4.71,89.15.6,100.81-1.81,108,3.07,109.61,14.77c.66,4.93.72,10,1.31,14.89.17,1.4,1,3.65,1.94,3.89,14.54,3.76,18,15,18.87,27.82.4,5.63-.68,10.35-.68,16C131,78,131.07,77.72,131,78.34ZM110.4,55.91v51c4.61-2.37,7.35-5.88,7.4-10.25.17-13.56-.25-27.12-.45-40.69-1-3.64-1.33-7.86-6.95-8.23Z"/><path class="cls-2" d="M43.86,50.05c.29-.33.81-.76,1.1-1.09a10.16,10.16,0,0,0,2.8-1.51c9.15-9,20.62-14.37,31.87-20,6.72-3.39,12.59-5.18,17.59,2.15.06.09.26.36.42.38C97.43,40.73,97,51.53,97,62.32c.17,23.12.65,46.24.92,69.36.11,8.83-1.49,9.94-10.06,7.27-10.86-3.38-20-9.72-28.35-17.17-4.82-4.3-9.62-9.51-14.19-14.08-.65-5.41-1.57-10.47-1.76-15.88C43.12,77.88,43.25,64,43.86,50.05Z"/><path class="cls-3" d="M44.05,50.06C44,64,43.72,77.94,43.93,91.88,44,97.3,45.15,102.7,45.8,108.1c-4.62-1.37-9.51-2.73-14.14-4.11C31,98.61,30,93.24,29.81,87.84c-.33-9.6-.11-19.2-.14-28.81C30.19,56,31,53,31.46,50Z"/><path class="cls-4" d="M30,58.56c0,9.61-.24,19.66.08,29.27.18,5.4,1.21,10.77,1.85,16.15-11,.63-15.48-3.35-17-14.54-1.27-9.56-2.24-19.5,1.1-28.86Z"/><path class="cls-5" d="M97.64,29.94c-.16,0-.41,0-.47-.08-5-7.33-10.62-5.49-17.33-2.11C68.59,33.43,57.07,38.48,47.92,47.51a11.58,11.58,0,0,1-3,1.55c.71-2,.87-4.46,2.21-5.77,10-9.89,20-20,33.33-25.57,4.07-1.72,8.46-2.7,12.7-4,3.42-1.06,4.67.8,4.7,3.78C97.92,21.65,97.73,25.79,97.64,29.94Z"/><path class="cls-6" d="M117.35,55.73c.2,13.56.62,27.37.45,40.93,0,4.37-2.79,7.88-7.4,10.25V55.73C112.71,55.75,115,55.71,117.35,55.73Z"/><path class="cls-7" d="M29.92,59,16,61c.2-8.67,7-13.55,15.43-11Q30.7,54.47,29.92,59Z"/><path class="cls-8" d="M117.35,56l-6.95-.06V47.74C116,48.11,116.35,52.33,117.35,56Z"/></g></g></svg>