<?xml version="1.0" encoding="utf-8"?>
<!-- Generator: Adobe Illustrator 26.1.0, SVG Export Plug-In . SVG Version: 6.00 Build 0)  -->
<svg version="1.1" id="Layer_1" xmlns="http://www.w3.org/2000/svg" xmlns:xlink="http://www.w3.org/1999/xlink" x="0px" y="0px"
	 viewBox="0 0 983 304" style="enable-background:new 0 0 983 304;" xml:space="preserve">
<style type="text/css">
	.st0{fill:#040203;}
	.st1{fill:#E76E00;}
	.st2{fill:#C34201;}
	.st3{fill:#ED8B3B;}
	.st4{fill:#FEFDFC;}
	.st5{fill:#FEFCFC;}
	.st6{fill:#C94401;}
	.st7{fill:#C94502;}
	.st8{fill:#C94604;}
	.st9{fill:#FDFBF9;}
	.st10{fill:#CB4A08;}
	.st11{fill:#C65314;}
	.st12{fill:#CA4907;}
	.st13{fill:#C94503;}
	.st14{fill:#CA4602;}
	.st15{fill:#CA4808;}
	.st16{fill:#CA4704;}
	.st17{fill:#C94603;}
</style>
<path class="st0" d="M491.4,298.2H322.9c-51.1,0-102.3-0.5-153.4,0.4c-26.7,0.5-51.5-5.3-75.4-16.3C57.5,265.7,31,239,16.5,201.2
	c-6.3-16.5-7.1-34-7.2-51.6c-0.1-18.6,3.2-36.5,11.1-53.3c18.1-38.7,48.3-64.2,88-78.8C128.6,9.9,149.9,6,171.4,6
	c214,0.3,428,0.4,641.9,0.2c34.2,0,66.3,8.6,95.5,26.4c33.8,20.6,55.3,50.3,65.3,89c9.6,37.1-3.7,92.6-29.5,120.7
	c-26.8,29.2-59.9,47-98.5,53.8c-14.8,2.6-30.1,2.1-45.2,2.2c-30.7,0.2-61.3,0-92-0.1H586.4L491.4,298.2z"/>
<path class="st1" d="M40,220.5c-12.3-16-18.6-34.2-20-54.3c-1.6-19.2,0.9-38.6,7.2-56.9c1.8-5.2,5-9.9,7.5-14.8
	c2.6-1.8,3.3-5.7,5.5-7.9c3.4-3.5,8-7.4,10.5-10.4c3,2.8,0.4-1.6,3.2-0.9c3.5,0.9,1.5,0.1,2.5-3.9c1.6-6.2,6.4-3.2,3.2-6.7
	c3.1-2.7,7.5-6.3,10.7-8.6c0.7-0.5,4.2-1.7,8.2,0.9c6.6,4.3,12.6-5.3,17.4-8c7.9-4.4,2.3-3.8,9.6-9.3c3.6-2.7,8.2-4.3,11.3-7.8
	c1.7-1.9,8.7-4,11-4.4c14.8-2.7,30.3-6.1,45.2-8.5c1.5,0,10.1,0.5,11.6,0.5c140.3,0,270.3,1.8,410.6,1.8c1.5,0,6.2-0.4,7.7-0.4
	c74.7,0,147.5-0.2,222.2-0.2c1.3,0,5,0.7,6.3,0.7c4.3,0.5,10.6,1.5,14.9,2.4c30.9,5.9,53.9,18.6,78.8,38c2,1.5,5.4,4.8,7.8,5.7
	c10.8,9.4,17.3,21.8,22.8,34.6c12,27.8,13.8,56.4,5.1,85.4c-1.6,1.6-3.2,7.3-4,9.2c-7,17.9-17.2,31-31.7,43
	c-31.1,25.8-67.6,41.6-107.6,43.3c-2.7,0-6.7-2.3-9.4-2.3c-186.7,5.2-376.4,0-564.4,0H170c-11.7-1.2-29.9-5.8-41-8.9
	c-33.2-9-59.2-19.9-83.5-45.6C44,224.5,42.2,221.5,40,220.5z"/>
<path class="st2" d="M39.6,219.3c2.1,1.1,4.8,1.7,6.3,3.3c24.4,25.8,55.7,39.2,89.1,48.4c8.4,2.3,17.4,2.1,26.1,3
	c4,0.4,7.9,0.7,11.9,1.1c1.9,0.4,3.9,0.7,5.8,0.9c179.5,0,358.9,0,538.4,0c2-0.1,3.9-0.4,5.8-0.9c28.2,0,56.3,0,84.5-0.1
	c41.3-0.1,78.8-11.7,111.6-37.1c15.7-12.1,28.9-26.6,36.5-45.4c0.9-2.2,3.5-3.7,5.3-5.5c-6.5,28.3-22.8,50.1-45.3,67.4
	c-29.1,22.4-62.5,32.7-99.1,32.8c-213.5,0.2-426.9,0.4-640.4,0.4c-22,0-43.4-4.3-64.7-10.8c-17.9-5.5-31.4-16.9-46.2-26.9
	C53.6,242,46.4,230.9,39.6,219.3z"/>
<path class="st3" d="M933,66.9c-2.4-1-5.2-1.4-7.2-3c-24.4-19.3-52.1-31.4-82.5-37.2c-8.7-1.6-17.5-2.5-26.3-2.5
	c-27.5-0.3-55-0.1-82.5-0.1c-188.6,0.3-377.1,0.7-565.7,1.2c-14.6,0.1-29.2,4.4-43.7,7c-1.6,0.3-3.7,1.7-4.2,3.1
	c-2.3,7.4-8.1,11.8-14,15.8c-7,4.5-14.2,8.5-21.6,12.1c-3.4,1.9-7.7,0.7-9.8-2.6c-2.1-3.1-4.1-2.8-6.6-0.8L61.7,66
	c3.4,3.7,9.8,3.2,8.3,9.3c-0.9,3.9-6.4,9-10.1,9.6c-5.7,1-5.2-4.4-7.8-7.8c-3.6,4.2-6.8,8.4-10.5,12.2c-2,2-4.7,3.2-7.1,4.8
	c3-5.7,5.3-12,9.1-17c24.3-31.6,56.9-49.6,95.8-57.2c14-2.7,28.1-3.3,42.2-3.3c71.2-0.1,142.3-0.2,213.5-0.2
	c135.7,0,271.3,0.5,407-0.1C841,16,876.4,25.6,909,46.1C918,51.8,927,57.7,933,66.9z"/>
<path class="st4" d="M433.9,190.4c0,4.1,0.4,8.3,0.1,12.5c-0.5,6.8-3.9,10-10.6,10.1c-25,0.1-50,0.2-75,0c-7.9-0.1-11.5-3.9-11.5-12
	c-0.1-33.3-0.1-66.7,0-100c0.1-2,0.4-4,0.8-5.9c2.4-6.2,7.9-6.8,13.2-6.8c23.6-0.2,47.2-0.1,70.8-0.1c5.6,0,10,1.9,12.2,7.5
	c0.1,3.5,0.4,7,0.2,10.5c-0.3,8.9-3.7,12.3-12.6,12.3c-16.8,0.1-33.6,0.1-50.4,0c-2.5,0-4.9-0.1-4,3.6v13.5H402
	c5.4,0,10.3,1,12.8,6.6c0.2,4.3,0.8,8.6,0.4,12.8c-0.8,8-4.1,10.8-12.5,10.9c-9.8,0.1-19.6,0-29.3,0H367v17c18.5,0,36.4,0,54.2,0
	C427.2,182.8,431.8,184.4,433.9,190.4z"/>
<path class="st4" d="M529.8,132.2c3.7,5.7,2.1,10.6-2.3,15.2c-4.6,4.8-9.2,9.6-13.7,14.4l-7.3,6.8l23.3,22.6c4,8.7-4,22.5-13.8,22.6
	c-3.4,0-7.5-2.6-10.3-5c-6.7-6-12.8-12.6-19.5-19.4c-6,6-11.7,11.8-17.5,17.5c-9.9,9.9-14.4,9.8-23.9-0.4c-5.3-5.7-5.6-8.9-1.6-16
	l22.8-21.6l-8-7.4c-4.2-4.4-8.4-8.8-12.6-13.3c-5.9-6.2-6.3-9.5-2.1-16.7c0.5-0.4,1-0.9,1.5-1.4c9.6-10.5,14-10.6,24-0.6
	c5.7,5.7,11.4,11.5,18,18.1c1.4-2,3-4,4.6-5.8c5.5-5.6,10.8-11.3,16.6-16.4c5.3-4.7,9.2-4.5,14.6,0
	C525.2,127.4,527.5,129.9,529.8,132.2z"/>
<path class="st4" d="M645.9,191.2c0,4.1,0.4,8.3,0,12.4c-0.5,5.6-3.5,9.2-8.8,9.1c-7.9-0.1-16-0.4-23.6-2.6
	c-13.5-3.8-17.8-15-18.3-27.8c-0.4-9.6-0.1-19.3-0.1-28.8c-0.4-0.2-0.9-0.3-1.3-0.4c-11.8,0.6-14.4-1.8-14.3-13.8
	c0-2.8,0.2-5.6,0.4-8.4c2-8.2,8.5-7.3,15-6.9v-13c0.1-3.5,0.2-7.1,0.3-10.6c1.7-4.7,5-7.2,10.1-7.4c2.5-0.1,5-0.2,7.5-0.1
	c7.4,0.2,10.1,2.3,12.3,9.1l0.2,9.1v12.8c4.4,0,8.5,0.2,12.6,0c6.3-0.4,10.9,1.6,13,8c0,3.6,0.3,7.3,0,10.9
	c-0.8,8-3.8,10.7-11.9,10.9c-4.4,0.1-8.9,0-13.7,0V168c0,1.8-0.2,3.6-0.2,5.4c0,10.6,0.3,11.1,10.6,11.4
	C640.4,185.1,643.8,186.9,645.9,191.2z"/>
<path class="st5" d="M571,135.8c0,19.8-0.2,39.6-0.1,59.4c0.1,15.9-2.6,19.2-21.4,17.4c-5.9-0.6-8.5-3.9-8.6-9.8
	c-0.1-24.1,0.1-48.3,0.2-72.4c1-1.5,1.7-3.5,3.1-4.3c6.4-3.7,13.3-3.2,20.2-1.3C570,126.2,570,131.3,571,135.8z"/>
<path class="st6" d="M433.9,95.7c-2.1-5.6-6.6-7.5-12.2-7.5c-23.6,0-47.2-0.1-70.8,0.1c-5.3,0-10.9,0.6-13.2,6.8
	c-0.2-3.6-0.7-7.3-0.4-10.8c0.2-4.2,3.4-7.6,7.6-8.2c2.8-0.6,5.6-0.9,8.4-1c21.8-0.1,43.5,0,65.3,0C431,75,434.1,78.2,434,90.7
	C434,92.3,433.9,94,433.9,95.7z"/>
<path class="st7" d="M529.8,132.2c-2.4-2.3-4.6-4.8-7.1-6.9c-5.4-4.5-9.3-4.7-14.6,0c-5.8,5.2-11.2,10.9-16.6,16.4
	c-1.6,1.9-3.2,3.8-4.6,5.8c-6.6-6.6-12.3-12.4-18-18.1c-10.1-10.1-14.4-10-24,0.6c-0.5,0.5-1,0.9-1.5,1.4c-1-1.7-2.9-3.4-2.8-5
	c0.4-8.1,6.3-12.4,12.5-16.2c4.6-2.8,8.8-0.5,12.2,2.7c5.7,5.4,11.1,11,16.6,16.5c4.6,4.6,4.6,4.6,9.4-0.2
	c5.9-5.8,11.7-11.8,17.6-17.5c3.7-3.5,8-3.6,11.8-0.6c3.4,2.7,6.5,5.7,9.2,9C533.1,123.9,532,128.1,529.8,132.2z"/>
<path class="st8" d="M433.9,190.4c-2.1-5.9-6.7-7.6-12.5-7.6c-17.9,0.1-35.8,0-54.2,0V170c17.6,0,35.1,0,52.7,0
	c11.5,0,14.2,2.7,14.2,14C434,186.1,433.9,188.2,433.9,190.4z"/>
<path class="st9" d="M546.3,110.4c-4.1-2.2-5.5-5.9-5.5-10.2c0-4,0.2-7.9,0.2-11.8c3.4-7.5,10.3-6.7,16.7-6.8s11.3,2.3,13.1,9
	c-0.1,3.8-0.2,7.6-0.4,11.4s-2,7-5.8,8.6L546.3,110.4z"/>
<path class="st10" d="M414.9,142.1c-2.5-5.6-7.4-6.6-12.8-6.6h-34.9v-13.4c11.4,0,22.9-0.2,34.3,0S417.9,128.5,414.9,142.1z"/>
<path class="st11" d="M723,275.1c-1.9,0.4-3.8,0.7-5.8,0.9c-179.5,0-358.9,0-538.4,0c-2-0.1-3.9-0.4-5.8-0.9c2.5,0,5-0.1,7.5-0.1
	h535C718,275,720.5,275,723,275.1z"/>
<path class="st12" d="M546.3,110.4l18.3,0.1c6.5,4.8,6.7,11.7,6.3,18.8c-0.1,2.1,0,4.3,0,6.5c-0.9-4.5-1-9.6-6.6-11.1
	c-6.8-1.8-13.7-2.3-20.2,1.3c-1.4,0.8-2.1,2.8-3.1,4.3c0-2.5,0.1-5-0.2-7.4C540.3,117.7,542.5,113.7,546.3,110.4z"/>
<path class="st13" d="M624.9,101.9c-2.3-6.8-5-8.8-12.3-9.1c-2.5-0.1-5,0-7.5,0.1c-5,0.2-8.4,2.7-10.1,7.4c0-1.2,0-2.3-0.1-3.5
	c-1.8-18.3,8.7-19.1,24.4-15.5c4.1,0.9,5.3,4.8,5.5,8.6C625.1,94,624.9,98,624.9,101.9z"/>
<path class="st14" d="M570.8,90.6c-1.8-6.7-6.6-9.2-13.1-9s-13.3-0.7-16.7,6.8c0-2,0-4-0.1-6c-0.9-11.8,5.3-14.2,15.5-14.2
	c11.4,0.1,14.6,4,14.6,15.4C570.9,85.9,570.9,88.2,570.8,90.6z"/>
<path class="st13" d="M650.7,131.8c-2.1-6.3-6.7-8.4-13-8c-4.1,0.3-8.2,0-12.6,0V111c4.8,0,9.6-0.1,14.4-0.1
	c7.4,0.1,10.7,3,11.3,10.4C651.1,124.8,650.8,128.3,650.7,131.8z"/>
<path class="st15" d="M529.8,191.2l-23.3-22.6l7.3-6.8c4.1,4.3,8.1,8.7,12.4,12.8C531.2,179.4,533.7,184.5,529.8,191.2z"/>
<path class="st16" d="M458,161.3l8,7.4l-22.8,21.6c-3.8-3.1-3.9-7-1.3-10.5c3-4.1,6.8-7.6,10.1-11.4
	C454.1,166.1,456,163.7,458,161.3z"/>
<path class="st17" d="M645.9,191.2c-2.1-4.3-5.5-6.1-10.3-6.3c-10.3-0.3-10.6-0.9-10.6-11.4c0-1.8,0.1-3.6,0.2-5.4
	c2.7,1.3,5.2,3.6,8,3.8c10.6,0.8,12.9,2.9,12.9,13.5C646,187.3,645.9,189.2,645.9,191.2z"/>
<path class="st14" d="M594.8,111v13c-6.5-0.4-12.9-1.2-15,6.9c0.3-5.2-0.1-10.5,1.3-15.3c0.6-2.1,4.6-3.5,7.3-4.5
	C590.3,110.4,592.7,111,594.8,111z"/>
</svg>
