<?xml version="1.0" encoding="utf-8"?>
<!-- Generator: Adobe Illustrator 26.1.0, SVG Export Plug-In . SVG Version: 6.00 Build 0)  -->
<svg version="1.1" id="Layer_1" xmlns="http://www.w3.org/2000/svg" xmlns:xlink="http://www.w3.org/1999/xlink" x="0px" y="0px"
	 viewBox="0 0 140.1 117.5" style="enable-background:new 0 0 140.1 117.5;" xml:space="preserve">
<style type="text/css">
	.st0{fill:#040302;}
	.st1{fill:#C74301;}
	.st2{fill:#F5903D;}
	.st3{fill:#E76E00;}
</style>
<g id="Layer_2_00000038388664752099772270000010725190986473286787_">
	<g id="Layer_1-2">
		<path class="st0" d="M68.3,116.3c-9.2-2-14.8-8.7-20.7-14.5C30.5,84.7,18.3,64.1,8.2,42.3C5,35.5,2.3,28.4-0.6,21.4l-0.2-6.2
			C2,7.9,7.9,4.5,15.1,3.3C23.7,1.9,32.5,1,41.2-0.1c4.7-0.6,9-0.6,13.9-1l22.5-0.1c3.4,0.2,3.8,0,5.6,0.2c13.5,1.4,27,2.4,40.5,4.1
			c6.8,0.8,12.9,3.7,15.6,10.9v8c-0.1,0.6-0.3,1.2-0.5,1.8c-7,23.1-19.6,43.3-33.9,62.5C95.3,99.1,81,113.5,68.3,116.3z"/>
		<path class="st1" d="M123,24.8c-0.2,2,0.2,4.6-0.5,6.3c-9.7,21.4-20.8,42-36.4,59.7c-3.2,3.6-6.7,6.9-10.2,10.2
			c-4.6,4.3-7.6,4.6-11.8-0.3c-8.7-10.2-18.1-20.1-25.1-31.4c-8.7-14-15.4-29.5-22.8-44.3c1.6,0,3.8-0.1,5.4-0.1
			c9.1,21.3,24.8,37.2,41.4,52.7c6.2,5.8,9.1,5.2,15.1-0.9c7-7.2,14.5-13.6,20.7-21.5c7.3-9.5,13.7-20,20.3-30.1
			C120.3,25,121.7,24.8,123,24.8z"/>
		<path class="st2" d="M122.2,25.2c-1.2,0.1-2.6,0.1-3.7,0.2c-0.1,0-0.2,0-0.2,0c-8.6-1.1-16.5-2.5-25.1-2.7
			C74,22.2,55,22.5,35.9,22.8c-5,0.1-9.4,1.4-14.3,2.4c-0.1,0-0.2,0-0.3,0c-1.3,0-2.7,0-4.1,0c-0.6,0-1.2-0.4-1.4-1
			c-1.9-5.5-0.7-7.3,5.4-8c30.2-3.4,60.4-2.8,90.6-0.9c4,0.3,9.7-0.2,13.1,1.5c1,0.5,1.4,1.8,0.9,2.9c-0.8,1.5-1.8,3.6-2.4,4.7
			C123.1,24.9,122.7,25.2,122.2,25.2z"/>
		<path class="st3" d="M21,25.2c4.9-1,9.9-2.7,14.8-2.8c19.1-0.3,38.2-0.5,57.3,0c8.7,0.2,17.3,2,26,3
			c-6.7,10.1-12.8,20.6-20.2,30.1c-6.1,7.9-13.7,14.8-20.7,22c-6,6.1-9.5,6.4-15.7,0.6C45.9,62.6,30.2,46.5,21,25.2z"/>
	</g>
</g>
</svg>
